<svg width="19" height="20" viewBox="0 0 19 20" fill="none" xmlns="http://www.w3.org/2000/svg">
<path d="M15.6549 2.71101C12.0972 -0.879999 6.30202 -0.906995 2.71101 2.65077C-0.879999 6.20853 -0.906995 12.0037 2.65077 15.5947C2.67851 15.6227 2.7064 15.6505 2.73449 15.6781L6.01538 18.7077C7.76897 20.4243 10.5707 20.4317 12.3333 18.7244L15.655 15.6548C19.2292 12.0805 19.2292 6.28542 15.6549 2.71101ZM14.1755 11.2631C14.1755 12.412 13.2442 13.3433 12.0953 13.3433H6.27081C5.12195 13.3433 4.19062 12.412 4.19062 11.2631V8.45738C4.19062 7.63907 4.59164 6.87272 5.264 6.40629L7.76022 4.67474C8.6165 4.08302 9.74961 4.08302 10.6059 4.67474L13.1022 6.40629C13.7745 6.87272 14.1755 7.63907 14.1755 8.45738V11.2631ZM12.5114 8.45734V11.2631C12.5114 11.4928 12.3251 11.6791 12.0953 11.6791H10.8472V10.015C10.8472 9.55541 10.4747 9.1829 10.0152 9.1829H8.351C7.89145 9.1829 7.51894 9.55545 7.51894 10.015V11.6791H6.27081C6.04105 11.6791 5.85478 11.4928 5.85478 11.2631V8.45734C5.8547 8.18449 5.98839 7.92891 6.21256 7.77338L8.70878 6.04183C8.99444 5.8454 9.37168 5.8454 9.65734 6.04183L12.1536 7.77338C12.3778 7.92891 12.5115 8.18449 12.5114 8.45734Z" fill="white"/>
</svg>
