<svg width="21" height="24" viewBox="0 0 21 24" fill="none" xmlns="http://www.w3.org/2000/svg">
<path d="M17.9298 3.25321C13.8551 -1.056 7.21777 -1.08839 3.10495 3.18092C-1.00787 7.45024 -1.03879 14.4044 3.03595 18.7136C3.06772 18.7472 3.09967 18.7806 3.13184 18.8137L6.88948 22.4493C8.89788 24.5091 12.1068 24.518 14.1255 22.4692L17.9298 18.7858C22.0234 14.4966 22.0234 7.5425 17.9298 3.25321ZM16.2354 13.5158C16.2354 14.8944 15.1687 16.012 13.8529 16.012H7.18202C5.86622 16.012 4.79956 14.8944 4.79956 13.5158V10.1489C4.79956 9.16688 5.25886 8.24726 6.02891 7.68755L8.88786 5.60969C9.86857 4.89963 11.1663 4.89963 12.1471 5.60969L15.006 7.68755C15.7761 8.24726 16.2354 9.16688 16.2354 10.1489V13.5158ZM14.3294 10.1488V13.5157C14.3294 13.7914 14.1161 14.0149 13.8529 14.0149H12.4234V12.018C12.4234 11.4665 11.9967 11.0195 11.4705 11.0195H9.56448C9.03816 11.0195 8.61152 11.4665 8.61152 12.018V14.0149H7.18202C6.91888 14.0149 6.70554 13.7914 6.70554 13.5157V10.1488C6.70545 9.82139 6.85856 9.51469 7.11531 9.32806L9.97425 7.2502C10.3014 7.01448 10.7335 7.01448 11.0607 7.2502L13.9196 9.32806C14.1764 9.51469 14.3295 9.82139 14.3294 10.1488Z" fill="black"/>
</svg>
