<svg width="21" height="20" viewBox="0 0 21 20" fill="none" xmlns="http://www.w3.org/2000/svg">
<path d="M20.1547 7.52814C19.6795 6.97791 18.9876 6.66945 18.2623 6.66945H18.1873C17.7704 2.92622 14.5857 0 10.7341 0C6.88254 0 3.69788 2.92622 3.28104 6.66945H3.23102C2.50571 6.66945 1.81376 6.98624 1.33856 7.52814C0.863362 8.07837 0.654942 8.80367 0.754984 9.52063L1.63869 15.7065C1.98883 18.1576 4.11472 20 6.59075 20H14.9025C17.3786 20 19.5045 18.1576 19.8546 15.7065L20.7383 9.52063C20.8384 8.80367 20.6299 8.07837 20.1547 7.52814ZM10.7341 1.66736C13.6687 1.66736 16.0947 3.84327 16.5032 6.66945H4.96507C5.37358 3.84327 7.79959 1.66736 10.7341 1.66736Z" fill="white"/>
</svg>
