<svg width="18" height="18" viewBox="0 0 18 18" fill="none" xmlns="http://www.w3.org/2000/svg">
<g clip-path="url(#clip0_712_592)">
<path d="M6.75931 9.14164C4.38903 9.14164 2.46144 7.21405 2.46144 4.84377C2.46144 2.47349 4.38903 0.545898 6.75931 0.545898C9.12959 0.545898 11.0572 2.47349 11.0572 4.84377C11.0572 7.21405 9.12959 9.14164 6.75931 9.14164ZM15.7132 10.5743H11.4153C10.4283 10.5743 9.62456 11.3773 9.62456 12.365V17.7374H17.504V12.365C17.504 11.3773 16.7003 10.5743 15.7132 10.5743ZM14.6387 14.1558H12.4898V12.7232H14.6387V14.1558ZM8.19193 11.8242L6.75931 13.4359L4.21568 10.5743H3.89406C1.91919 10.5743 0.3125 12.181 0.3125 14.1558V17.7374H8.19193V11.8242Z" fill="black"/>
</g>
<defs>
<clipPath id="clip0_712_592">
<rect width="17.1915" height="17.1915" fill="white" transform="translate(0.3125 0.545898)"/>
</clipPath>
</defs>
</svg>
