<svg width="20" height="20" viewBox="0 0 20 20" fill="none" xmlns="http://www.w3.org/2000/svg">
<path d="M16.6669 0H3.33338C2.44931 0 1.60145 0.351194 0.976325 0.976324C0.351195 1.60145 0 2.44931 0 3.33338L0 13.3335C0 14.2176 0.351195 15.0654 0.976325 15.6906C1.60145 16.3157 2.44931 16.6669 3.33338 16.6669H5.75008L9.4593 19.8028C9.60977 19.9301 9.80052 20 9.99764 20C10.1948 20 10.3855 19.9301 10.536 19.8028L14.2502 16.6669H16.6669C17.551 16.6669 18.3988 16.3157 19.024 15.6906C19.6491 15.0654 20.0003 14.2176 20.0003 13.3335V3.33338C20.0003 2.44931 19.6491 1.60145 19.024 0.976324C18.3988 0.351194 17.551 0 16.6669 0ZM5.83342 4.16673H10.0001C10.2212 4.16673 10.4331 4.25452 10.5894 4.41081C10.7457 4.56709 10.8335 4.77905 10.8335 5.00007C10.8335 5.22109 10.7457 5.43305 10.5894 5.58933C10.4331 5.74562 10.2212 5.83342 10.0001 5.83342H5.83342C5.6124 5.83342 5.40043 5.74562 5.24415 5.58933C5.08787 5.43305 5.00007 5.22109 5.00007 5.00007C5.00007 4.77905 5.08787 4.56709 5.24415 4.41081C5.40043 4.25452 5.6124 4.16673 5.83342 4.16673ZM14.1669 12.5002H5.83342C5.6124 12.5002 5.40043 12.4124 5.24415 12.2561C5.08787 12.0998 5.00007 11.8878 5.00007 11.6668C5.00007 11.4458 5.08787 11.2338 5.24415 11.0776C5.40043 10.9213 5.6124 10.8335 5.83342 10.8335H14.1669C14.3879 10.8335 14.5998 10.9213 14.7561 11.0776C14.9124 11.2338 15.0002 11.4458 15.0002 11.6668C15.0002 11.8878 14.9124 12.0998 14.7561 12.2561C14.5998 12.4124 14.3879 12.5002 14.1669 12.5002ZM14.1669 9.1668H5.83342C5.6124 9.1668 5.40043 9.079 5.24415 8.92271C5.08787 8.76643 5.00007 8.55447 5.00007 8.33345C5.00007 8.11243 5.08787 7.90047 5.24415 7.74419C5.40043 7.5879 5.6124 7.50011 5.83342 7.50011H14.1669C14.3879 7.50011 14.5998 7.5879 14.7561 7.74419C14.9124 7.90047 15.0002 8.11243 15.0002 8.33345C15.0002 8.55447 14.9124 8.76643 14.7561 8.92271C14.5998 9.079 14.3879 9.1668 14.1669 9.1668Z" fill="white"/>
</svg>
