<svg width="12" height="10" viewBox="0 0 12 10" fill="none" xmlns="http://www.w3.org/2000/svg">
<g clip-path="url(#clip0_1196_197)">
<path d="M10.8712 3.95033L9.33988 1.45033C8.9493 0.812826 8.22586 0.416992 7.45125 0.416992H4.35807C3.58346 0.416992 2.85959 0.813242 2.469 1.45033L0.938156 3.95033C0.541448 4.59783 0.541448 5.40241 0.938156 6.04991L2.469 8.54991C2.85959 9.18741 3.58302 9.58324 4.35807 9.58324H7.45125C8.22586 9.58324 8.94974 9.18699 9.34032 8.54991L10.8712 6.04991C11.2674 5.40241 11.2674 4.59783 10.8712 3.95033ZM8.61601 4.37991L6.68014 6.19033C6.33767 6.51033 5.89679 6.66991 5.4559 6.66991C5.01939 6.66991 4.58245 6.51324 4.24129 6.19949L3.41069 5.42116C3.23836 5.25991 3.23618 4.99616 3.40544 4.83199C3.57471 4.66741 3.85114 4.66533 4.02391 4.82699L4.85188 5.60241C5.19216 5.91491 5.72752 5.91324 6.06824 5.59491L8.00367 3.78491C8.17556 3.62324 8.45155 3.62616 8.62213 3.79033C8.7914 3.95449 8.78878 4.21866 8.61601 4.37991Z" fill="white"/>
</g>
<defs>
<clipPath id="clip0_1196_197">
<rect width="10.4972" height="10" fill="white" transform="translate(0.65625)"/>
</clipPath>
</defs>
</svg>
