<svg width="20" height="20" viewBox="0 0 20 20" fill="none" xmlns="http://www.w3.org/2000/svg">
<g clip-path="url(#clip0_1290_268)">
<path d="M16.6174 2.20198L9.9974 0.0078125L3.3774 2.20198C2.87862 2.36733 2.44463 2.68563 2.13706 3.11167C1.8295 3.53772 1.66399 4.04985 1.66406 4.57531V10.0003C1.66406 16.2703 9.33073 19.7328 9.65906 19.877L9.95406 20.0078L10.2607 19.9061C10.5907 19.7961 18.3307 17.1478 18.3307 10.0003V4.57531C18.3308 4.04985 18.1653 3.53772 17.8577 3.11167C17.5502 2.68563 17.1162 2.36733 16.6174 2.20198ZM10.3674 11.6578C10.2217 11.8045 10.0484 11.9207 9.85738 11.9998C9.6664 12.0789 9.46161 12.1193 9.2549 12.1186H9.2274C9.01647 12.1154 8.80839 12.0694 8.61574 11.9835C8.42309 11.8976 8.24988 11.7734 8.10656 11.6186L6.1849 9.61865L7.3874 8.46698L9.2574 10.417L13.5749 6.09948L14.7532 7.27781L10.3674 11.6578Z" fill="white"/>
</g>
<defs>
<clipPath id="clip0_1290_268">
<rect width="20" height="20" fill="white"/>
</clipPath>
</defs>
</svg>
