<svg width="11" height="11" viewBox="0 0 11 11" fill="none" xmlns="http://www.w3.org/2000/svg">
<g clip-path="url(#clip0_462_181)">
<path d="M6.38457 5.49989L9.93023 1.11959C10.169 0.824428 10.1237 0.391761 9.82803 0.15297C9.5324 -0.0862803 9.10019 -0.0399886 8.8614 0.255178L5.49998 4.40768L2.13857 0.255178C1.56978 -0.44103 0.506901 0.418803 1.06973 1.12005L4.6154 5.50035L1.06973 9.88018C0.830942 10.1753 0.876317 10.608 1.17194 10.8468C1.46528 11.0847 1.89886 11.0411 2.13857 10.7446L5.49998 6.5921L8.8614 10.7446C9.10157 11.0411 9.53515 11.0847 9.82803 10.8468C10.1237 10.608 10.169 10.1749 9.93023 9.88018L6.38457 5.49989Z" fill="white"/>
</g>
<defs>
<clipPath id="clip0_462_181">
<rect width="11" height="11" fill="white"/>
</clipPath>
</defs>
</svg>
