<svg width="24" height="24" viewBox="0 0 24 24" fill="none" xmlns="http://www.w3.org/2000/svg">
<path d="M7.942 20C7.976 20.162 8 20.328 8 20.5C8 21.881 6.881 23 5.5 23C4.119 23 3 21.881 3 20.5C3 20.328 3.024 20.162 3.058 20H7.942ZM17.057 20C17.023 20.162 16.999 20.328 16.999 20.5C16.999 21.881 18.118 23 19.499 23C20.88 23 21.999 21.881 21.999 20.5C21.999 20.328 21.975 20.162 21.941 20H17.057ZM14.999 4V18H0V4C0 2.343 1.343 1 3 1H12C13.657 1 15 2.343 15 4H14.999ZM10.791 9.642C10.547 9.26 10.132 9.033 9.679 9.033H6.47L8.696 4.982L6.943 4.019L4.14 9.122C3.934 9.534 3.955 10.015 4.198 10.406C4.441 10.799 4.861 11.033 5.322 11.033H8.478L6.111 14.987L7.828 16.014L10.877 10.909C11.067 10.498 11.035 10.024 10.791 9.642ZM18.999 5H16.999V11H23.999V10C23.999 7.243 21.756 5 18.999 5ZM16.999 18H23.999V13H16.999V18Z" fill="black"/>
</svg>
