<svg width="10" height="10" viewBox="0 0 10 10" fill="none" xmlns="http://www.w3.org/2000/svg">
<g clip-path="url(#clip0_1196_338)">
<path d="M5 2.91667V0.191667C5.38042 0.335833 5.73042 0.557917 6.02708 0.854167L7.47875 2.30667C7.77542 2.60292 7.9975 2.95292 8.14167 3.33333H5.41667C5.18667 3.33333 5 3.14625 5 2.91667ZM5.52917 8.11667C5.19042 8.45542 5 8.91458 5 9.39375V10H5.60625C6.08542 10 6.54458 9.80958 6.88333 9.47083L9.71958 6.63458C10.0933 6.26083 10.0933 5.65417 9.71958 5.28042C9.34583 4.90667 8.73917 4.90667 8.36542 5.28042L5.52917 8.11667ZM4.16667 9.39375C4.16667 8.68875 4.44125 8.02583 4.93958 7.5275L7.77583 4.69125C7.93792 4.52917 8.12667 4.40458 8.33042 4.31583C8.32875 4.26583 8.32667 4.21625 8.32333 4.16625H5.41667C4.7275 4.16625 4.16667 3.60542 4.16667 2.91625V0.01C4.09958 0.00541667 4.0325 0 3.96458 0H2.08333C0.934583 0 0 0.934583 0 2.08333V7.91667C0 9.06542 0.934583 10 2.08333 10H4.16667V9.39375Z" fill="white"/>
</g>
<defs>
<clipPath id="clip0_1196_338">
<rect width="10" height="10" fill="white"/>
</clipPath>
</defs>
</svg>
