<svg width="16" height="16" viewBox="0 0 16 16" fill="none" xmlns="http://www.w3.org/2000/svg">
<g clip-path="url(#clip0_1059_122)">
<path d="M7.9997 0.027832C6.23566 0.0297728 4.54442 0.731349 3.29699 1.97865C2.04957 3.22595 1.34782 4.91713 1.3457 6.68117C1.3457 8.3945 2.67237 11.0758 5.28904 14.6505C5.60054 15.0773 6.00841 15.4244 6.47944 15.6638C6.95047 15.9031 7.47135 16.0279 7.9997 16.0279C8.52805 16.0279 9.04894 15.9031 9.51997 15.6638C9.991 15.4244 10.3989 15.0773 10.7104 14.6505C13.327 11.0758 14.6537 8.3945 14.6537 6.68117C14.6516 4.91713 13.9498 3.22595 12.7024 1.97865C11.455 0.731349 9.76374 0.0297728 7.9997 0.027832ZM7.9997 9.33317C7.47229 9.33317 6.95671 9.17677 6.51818 8.88375C6.07965 8.59073 5.73786 8.17426 5.53602 7.68699C5.33419 7.19972 5.28138 6.66354 5.38428 6.14626C5.48717 5.62898 5.74114 5.15382 6.11409 4.78088C6.48703 4.40794 6.96218 4.15397 7.47946 4.05107C7.99675 3.94818 8.53292 4.00099 9.02019 4.20282C9.50746 4.40465 9.92394 4.74645 10.217 5.18498C10.51 5.62351 10.6664 6.13908 10.6664 6.6665C10.6664 7.37374 10.3854 8.05202 9.88532 8.55212C9.38522 9.05222 8.70695 9.33317 7.9997 9.33317Z" fill="#DF1414"/>
</g>
<defs>
<clipPath id="clip0_1059_122">
<rect width="16" height="16" fill="white"/>
</clipPath>
</defs>
</svg>
