<svg width="34" height="35" viewBox="0 0 34 35" fill="none" xmlns="http://www.w3.org/2000/svg">
<g clip-path="url(#clip0_254_1702)">
<path d="M10.5969 19.0579C9.33936 19.0579 8.11008 18.685 7.06449 17.9863C6.0189 17.2877 5.20397 16.2947 4.72273 15.1329C4.2415 13.9711 4.11559 12.6927 4.36092 11.4593C4.60625 10.226 5.2118 9.09306 6.101 8.20386C6.9902 7.31466 8.12311 6.70911 9.35647 6.46378C10.5898 6.21845 11.8682 6.34436 13.03 6.82559C14.1918 7.30683 15.1848 8.12176 15.8835 9.16735C16.5821 10.2129 16.955 11.4422 16.955 12.6997C16.9531 14.3854 16.2827 16.0016 15.0907 17.1935C13.8987 18.3855 12.2826 19.056 10.5969 19.0579ZM19.7808 34.5999H1.41292C1.03819 34.5999 0.678807 34.4511 0.413834 34.1861C0.14886 33.9211 0 33.5618 0 33.187V32.4806C0 29.6701 1.11645 26.9747 3.10375 24.9874C5.09105 23.0001 7.78641 21.8837 10.5969 21.8837C13.4073 21.8837 16.1027 23.0001 18.09 24.9874C20.0773 26.9747 21.1938 29.6701 21.1938 32.4806V33.187C21.1938 33.5618 21.0449 33.9211 20.7799 34.1861C20.5149 34.4511 20.1556 34.5999 19.7808 34.5999ZM24.726 13.4062C23.4685 13.4062 22.2392 13.0333 21.1937 12.3347C20.1481 11.636 19.3331 10.643 18.8519 9.48122C18.3707 8.31942 18.2448 7.04102 18.4901 5.80766C18.7354 4.5743 19.341 3.4414 20.2302 2.5522C21.1194 1.663 22.2523 1.05744 23.4856 0.812114C24.719 0.566784 25.9974 0.692696 27.1592 1.17393C28.321 1.65516 29.314 2.4701 30.0126 3.51568C30.7113 4.56127 31.0842 5.79055 31.0842 7.04807C31.0823 8.73378 30.4118 10.3499 29.2199 11.5419C28.0279 12.7339 26.4117 13.4043 24.726 13.4062ZM22.7183 16.2617C21.4023 16.4383 20.137 16.8847 19.0016 17.573C17.8662 18.2613 16.8852 19.1766 16.12 20.2617C19.2862 21.6995 21.7739 24.3057 23.063 27.5354H32.4971C32.8718 27.5354 33.2312 27.3865 33.4962 27.1215C33.7611 26.8566 33.91 26.4972 33.91 26.1224V26.0688C33.9085 24.6604 33.6066 23.2685 33.0245 21.9861C32.4423 20.7036 31.5933 19.5601 30.534 18.6319C29.4748 17.7037 28.2297 17.0122 26.8819 16.6035C25.5341 16.1947 24.1147 16.0782 22.7183 16.2617Z" fill="black"/>
</g>
<defs>
<clipPath id="clip0_254_1702">
<rect width="33.91" height="33.91" fill="white" transform="translate(0 0.689941)"/>
</clipPath>
</defs>
</svg>
