<svg width="24" height="24" viewBox="0 0 24 24" fill="none" xmlns="http://www.w3.org/2000/svg">
<path d="M10 1H5C2.239 1 0 3.239 0 6V14C0 16.209 1.791 18 4 18H15V6C15 3.239 12.761 1 10 1ZM10.035 11H3L4.768 12.768C5.159 13.159 5.159 13.791 4.768 14.182C4.573 14.377 4.317 14.475 4.061 14.475C3.805 14.475 3.549 14.377 3.354 14.182L0.586 11.414C-0.194 10.634 -0.194 9.366 0.586 8.586L3.354 5.818C3.745 5.427 4.377 5.427 4.768 5.818C5.159 6.208 5.159 6.841 4.768 7.232L3 9H10.035C10.588 9 11.035 9.448 11.035 10C11.035 10.552 10.588 11 10.035 11ZM19.942 20C19.976 20.162 20 20.328 20 20.5C20 21.881 18.881 23 17.5 23C16.119 23 15 21.881 15 20.5C15 20.328 15.024 20.162 15.058 20H19.943H19.942ZM4.057 20C4.023 20.162 3.999 20.328 3.999 20.5C3.999 21.881 5.118 23 6.499 23C7.88 23 8.999 21.881 8.999 20.5C8.999 20.328 8.975 20.162 8.941 20H4.057ZM23.999 13H16.999V18H19.999C22.208 18 23.999 16.209 23.999 14M23.999 10C23.999 7.239 21.76 5 18.999 5H16.999V11H23.999" fill="black"/>
</svg>
