<svg width="37" height="37" viewBox="0 0 37 37" fill="none" xmlns="http://www.w3.org/2000/svg">
<path d="M15.0961 16.5382C16.4441 15.1891 18.7969 15.1891 20.1449 16.5382L20.8158 17.209C21.3831 17.7763 22.3096 17.7763 22.8769 17.209L31.1521 8.93378C30.6049 7.23289 29.0086 6 27.1281 6H10.2258C7.89528 5.99894 6 7.89423 6 10.2248V22.9023C6 23.6851 6.21446 24.4183 6.58633 25.0479L15.0961 16.5382ZM12.867 11.2812C13.7417 11.2812 14.4517 11.9912 14.4517 12.8659C14.4517 13.7407 13.7417 14.4506 12.867 14.4506C11.9922 14.4506 11.2823 13.7407 11.2823 12.8659C11.2823 11.9912 11.9922 11.2812 12.867 11.2812ZM31.355 11.7186V22.9023C31.355 25.2328 29.4597 27.1281 27.1291 27.1281H24.1151L20.0519 30.4876C19.6695 30.8278 19.1804 31 18.687 31C18.1841 31 17.677 30.8215 17.2735 30.4623L13.3139 27.1281H10.2258C9.44299 27.1281 8.70981 26.9136 8.08016 26.5418L16.591 18.032C17.1414 17.4816 18.1007 17.4816 18.6521 18.032L19.323 18.7028C20.7154 20.0952 22.9794 20.0952 24.3718 18.7028L31.355 11.7186Z" fill="white"/>
</svg>
