<svg width="16" height="16" viewBox="0 0 16 16" fill="none" xmlns="http://www.w3.org/2000/svg">
<g clip-path="url(#clip0_735_301)">
<path d="M8.16292 0.699219C6.68828 0.699219 5.24676 1.1365 4.02065 1.95576C2.79454 2.77502 1.8389 3.93947 1.27458 5.30186C0.710262 6.66424 0.56261 8.16337 0.850297 9.60967C1.13798 11.056 1.84809 12.3845 2.89081 13.4272C3.93354 14.4699 5.26205 15.18 6.70835 15.4677C8.15465 15.7554 9.65378 15.6078 11.0162 15.0434C12.3785 14.4791 13.543 13.5235 14.3623 12.2974C15.1815 11.0713 15.6188 9.62974 15.6188 8.1551C15.6167 6.17834 14.8304 4.28314 13.4327 2.88536C12.0349 1.48757 10.1397 0.701357 8.16292 0.699219ZM8.16292 14.3683C6.93406 14.3683 5.73279 14.0039 4.71103 13.3212C3.68927 12.6385 2.8929 11.6681 2.42264 10.5328C1.95237 9.39748 1.82933 8.14821 2.06907 6.94296C2.30881 5.73771 2.90056 4.63062 3.7695 3.76168C4.63843 2.89274 5.74553 2.30099 6.95078 2.06125C8.15603 1.82151 9.4053 1.94456 10.5406 2.41482C11.6759 2.88509 12.6463 3.68145 13.329 4.70321C14.0118 5.72497 14.3762 6.92624 14.3762 8.1551C14.3743 9.8024 13.7192 11.3817 12.5543 12.5465C11.3895 13.7113 9.81021 14.3665 8.16292 14.3683Z" fill="white"/>
<path d="M8.16062 6.91211H7.53929C7.37451 6.91211 7.21647 6.97757 7.09995 7.09409C6.98343 7.21061 6.91797 7.36865 6.91797 7.53343C6.91797 7.69822 6.98343 7.85625 7.09995 7.97277C7.21647 8.0893 7.37451 8.15476 7.53929 8.15476H8.16062V11.8827C8.16062 12.0475 8.22608 12.2055 8.3426 12.322C8.45912 12.4386 8.61715 12.504 8.78194 12.504C8.94672 12.504 9.10476 12.4386 9.22128 12.322C9.3378 12.2055 9.40326 12.0475 9.40326 11.8827V8.15476C9.40326 7.82519 9.27234 7.50911 9.0393 7.27607C8.80626 7.04303 8.49019 6.91211 8.16062 6.91211Z" fill="white"/>
<path d="M8.16245 5.66963C8.67718 5.66963 9.09444 5.25237 9.09444 4.73765C9.09444 4.22293 8.67718 3.80566 8.16245 3.80566C7.64773 3.80566 7.23047 4.22293 7.23047 4.73765C7.23047 5.25237 7.64773 5.66963 8.16245 5.66963Z" fill="white"/>
</g>
<defs>
<clipPath id="clip0_735_301">
<rect width="14.9118" height="14.9118" fill="white" transform="translate(0.707031 0.69873)"/>
</clipPath>
</defs>
</svg>
