<svg width="39" height="19" viewBox="0 0 39 19" fill="none" xmlns="http://www.w3.org/2000/svg">
<path d="M30.6984 3.45312V4.51324C30.1131 4.51324 29.6384 4.98806 29.6384 5.57353V8.85748H28.5781V5.57353C28.5781 4.40243 29.5273 3.45312 30.6984 3.45312Z" fill="#004E9F"/>
<path d="M5.7617 3.45312C5.12821 3.45312 4.56004 3.73133 4.17152 4.17174C3.783 3.73133 3.21483 3.45312 2.58117 3.45312C1.41024 3.45312 0.460938 4.40243 0.460938 5.57353V8.85748H1.52106V5.57353C1.52106 4.98806 1.99588 4.51324 2.58117 4.51324C3.16664 4.51324 3.64146 4.98806 3.64146 5.57353V8.85748H4.70158V5.57353C4.70158 4.98806 5.1764 4.51324 5.7617 4.51324C6.34716 4.51324 6.82182 4.98806 6.82182 5.57353V8.85748H7.8821V5.57353C7.8821 4.40243 6.9328 3.45312 5.7617 3.45312Z" fill="#004E9F"/>
<path d="M16.7921 8.85734V7.79722C16.2068 7.79722 15.732 7.3224 15.732 6.73694V0.750977H14.6719V6.73694C14.6719 7.90804 15.621 8.85734 16.7921 8.85734Z" fill="#004E9F"/>
<path d="M19.6204 3.45275C19.2341 3.45275 18.8721 3.55668 18.5603 3.73717V0.763672H17.5V5.57316V8.85711H18.5603V5.57316C18.5603 4.98769 19.0349 4.51287 19.6204 4.51287C20.2057 4.51287 20.6805 4.98769 20.6805 5.57316V8.85711H21.7408V5.57316C21.7408 4.40206 20.7915 3.45275 19.6204 3.45275Z" fill="#004E9F"/>
<path d="M13.9114 5.63616C13.6641 4.40596 12.5778 3.47949 11.275 3.47949C9.97229 3.47949 8.88581 4.40596 8.63866 5.63616C8.60424 5.80843 8.58594 5.9864 8.58594 6.16874C8.58594 6.35125 8.60424 6.52939 8.63866 6.70149C8.88614 7.93152 9.97229 8.85782 11.275 8.85782C12.1619 8.85782 12.9481 8.4285 13.4379 7.76681L12.5861 7.13752C12.2895 7.53863 11.8126 7.79871 11.275 7.79871C10.5613 7.79871 9.95449 7.34018 9.73387 6.70149H13.9114C13.9458 6.52939 13.9641 6.35125 13.9641 6.16874C13.9641 5.9864 13.9458 5.80843 13.9114 5.63616ZM11.275 4.5386C11.9888 4.5386 12.5955 4.99747 12.8162 5.63616H9.73387C9.95449 4.99747 10.5613 4.5386 11.275 4.5386Z" fill="#004E9F"/>
<path d="M25.1709 3.45312C23.6785 3.45312 22.4688 4.66301 22.4688 6.1553C22.4688 7.64776 23.6785 8.85748 25.1709 8.85748C26.6634 8.85748 27.8731 7.64776 27.8731 6.1553C27.8731 4.66301 26.6634 3.45312 25.1709 3.45312ZM25.1709 7.79837C24.2636 7.79837 23.5279 7.0628 23.5279 6.1553C23.5279 5.24797 24.2636 4.51224 25.1709 4.51224C26.0784 4.51224 26.814 5.24797 26.814 6.1553C26.814 7.0628 26.0784 7.79837 25.1709 7.79837Z" fill="#004E9F"/>
<path d="M29.5914 9.96484H28.5312V15.343H29.5914V9.96484Z" fill="#004E9F"/>
<path d="M16.7525 12.1375C16.5067 10.9133 15.4256 9.99121 14.1291 9.99121C12.8326 9.99121 11.7515 10.9133 11.5057 12.1375C11.4711 12.3087 11.4531 12.4859 11.4531 12.6674C11.4531 12.849 11.4711 13.0263 11.5057 13.1974C11.7517 14.4216 12.8326 15.3435 14.1291 15.3435C15.0116 15.3435 15.7942 14.9164 16.2814 14.2577L15.4339 13.6314C15.1387 14.0307 14.6642 14.2894 14.1291 14.2894C13.4189 14.2894 12.815 13.8331 12.5955 13.1974H16.7525C16.7871 13.0263 16.8051 12.849 16.8051 12.6674C16.8051 12.4859 16.7871 12.3087 16.7525 12.1375ZM14.1291 11.0451C14.8393 11.0451 15.4433 11.5018 15.6627 12.1375H12.5955C12.815 11.5018 13.4189 11.0451 14.1291 11.0451Z" fill="#004E9F"/>
<path d="M19.6204 9.93945C18.4493 9.93945 17.5 10.8886 17.5 12.0599V15.3438H18.5603V12.0599C18.5603 11.4744 19.0349 10.9996 19.6204 10.9996C20.2057 10.9996 20.6805 11.4744 20.6805 12.0599V15.3438H21.7408V12.0599C21.7408 10.8886 20.7915 9.93945 19.6204 9.93945Z" fill="#004E9F"/>
<path d="M33.0069 9.93848C31.5146 9.93848 30.3047 11.1484 30.3047 12.6407C30.3047 14.1331 31.5146 15.3428 33.0069 15.3428C34.4993 15.3428 35.709 14.1331 35.709 12.6407C35.709 11.1484 34.4993 9.93848 33.0069 9.93848ZM33.0069 14.2837C32.0995 14.2837 31.3638 13.5482 31.3638 12.6407C31.3638 11.7333 32.0995 10.9976 33.0069 10.9976C33.9144 10.9976 34.6499 11.7333 34.6499 12.6407C34.6499 13.5482 33.9144 14.2837 33.0069 14.2837Z" fill="#004E9F"/>
<path d="M26.7033 10.006L25.1713 13.855L23.6388 10.0059L22.4688 10.006L24.6956 15.3434H25.6471L27.8731 10.006H26.7033Z" fill="#004E9F"/>
<path d="M30.6984 3.45312V4.51324C30.1131 4.51324 29.6384 4.98806 29.6384 5.57353V8.85748H28.5781V5.57353C28.5781 4.40243 29.5273 3.45312 30.6984 3.45312Z" fill="#004E9F"/>
<path d="M38.5315 9.85865L38.5312 9.85378C38.507 9.54165 38.3927 9.24279 38.191 8.96542L38.184 8.95602C37.619 8.21726 36.6919 8.15094 35.8394 8.13029C36.2474 7.5324 36.7815 6.6746 36.8 5.57082C36.8193 4.79043 36.5797 4.11077 36.1259 3.65677C35.9632 3.49424 35.7536 3.35136 35.5355 3.25448C35.3147 3.15626 35.0914 3.10774 34.8534 3.10606C34.3874 3.08524 33.9218 3.27278 33.5733 3.62134C33.2138 3.98082 33.102 4.40594 33.0033 4.78119L32.9997 4.79563C32.9992 4.79782 32.9987 4.79983 32.9984 4.80184C32.9331 5.08257 32.8085 5.34584 32.6357 5.57637L32.3861 5.90897L32.3058 6.00535L32.2902 6.02516C32.2734 6.04766 32.2534 6.07066 32.2308 6.09736C32.2042 6.12808 32.1749 6.1625 32.1433 6.2033C31.9442 6.43081 31.7034 6.69458 31.423 6.94005L31.4144 6.9476C31.1433 7.19626 30.8453 7.44979 30.5845 7.66336V8.38885V8.8578C30.5845 8.8578 31.6386 8.07773 32.0758 7.67729C32.4029 7.39052 32.6737 7.09284 32.8956 6.83931L32.9188 6.8106C32.9358 6.78793 32.9556 6.76493 32.9784 6.7384C33.0058 6.70633 33.0367 6.67023 33.0698 6.62691L33.1507 6.5297L33.491 6.06831C33.6833 5.8079 33.827 5.51475 33.9126 5.20262C33.9284 5.1452 33.9433 5.08593 33.9576 5.02465C34.0335 4.73636 34.0998 4.48737 34.2696 4.31779C34.3079 4.27951 34.3609 4.24626 34.4192 4.21789C34.5335 4.16198 34.8048 4.09801 35.0375 4.14552C35.239 4.18666 35.4116 4.33542 35.4293 4.35305C35.6875 4.61111 35.828 5.04664 35.8156 5.54816L35.8154 5.55269C35.801 6.45247 35.2968 7.183 34.9286 7.71658L34.8849 7.77988C34.7232 7.98892 34.6094 8.17444 34.5162 8.37962L34.2251 9.02016L34.9266 9.07422C35.051 9.08379 35.1725 9.08849 35.2902 9.09302C35.4036 9.09739 35.5105 9.10142 35.6161 9.10965L35.6437 9.11099C36.4147 9.12694 37.0807 9.14088 37.398 9.54954C37.4894 9.67664 37.5389 9.80005 37.549 9.92681C37.5621 10.1259 37.5359 10.3189 37.4716 10.5005C37.3403 10.8528 37.3079 11.25 37.3774 11.6503C37.4041 11.8263 37.4041 12.0029 37.3777 12.1616L37.3764 12.1694C37.3403 12.4104 37.2288 12.6567 37.0451 12.9017C36.9858 12.9807 36.9022 13.1073 36.8406 13.2616L36.8305 13.2888C36.78 13.4403 36.7523 13.6149 36.7523 13.7803C36.7523 13.9371 36.6764 14.1668 36.6086 14.3411C36.5443 14.5063 36.4566 14.6612 36.348 14.8011C36.2587 14.9165 36.1467 15.0479 36.057 15.1121L36.0355 15.1282C35.9454 15.2004 35.824 15.3114 35.7293 15.4479L35.7113 15.4658L35.6835 15.5085C35.3275 16.0536 35.1086 16.3889 34.7766 16.6643C34.5013 16.8928 34.1747 17.0505 33.8273 17.1366C33.7219 17.1628 33.6188 17.1848 33.5182 17.1992C33.263 17.2333 33.0219 17.2652 32.7902 17.2652C31.9388 17.2652 31.0988 17.1631 30.2934 16.9618L30.2858 16.96C29.8375 16.8554 29.2421 16.7274 28.6129 16.6665L28.1906 16.6641L11.5319 16.665C11.4298 16.665 11.4255 16.8164 11.5274 16.8225L28.5412 17.649C29.103 17.7051 29.6458 17.822 30.0583 17.9182C30.9408 18.1383 31.8599 18.2501 32.7902 18.2501C33.0879 18.2501 33.374 18.212 33.6507 18.1751L33.6552 18.1744C33.7937 18.1546 34.0468 18.0916 34.2504 18.0377C34.4952 17.9729 34.73 17.8747 34.9469 17.7444C35.6774 17.3057 36.0028 16.8203 36.48 16.0899L36.5357 16.0133C36.5465 15.9957 36.5832 15.9526 36.6422 15.9042C36.9336 15.6932 37.1714 15.4207 37.3497 15.0938C37.6032 14.7047 37.7372 14.2512 37.7372 13.7803C37.7372 13.7267 37.7461 13.6631 37.7605 13.6141C37.7777 13.5756 37.8042 13.5311 37.8331 13.4925C38.115 13.1167 38.2888 12.7222 38.3499 12.3194C38.3935 12.0549 38.3935 11.7781 38.35 11.4958L38.3484 11.4853C38.3082 11.2579 38.325 11.0296 38.3952 10.842L38.3979 10.8348C38.509 10.5237 38.554 10.1953 38.5315 9.85865Z" fill="#FFB30E"/>
</svg>
