<svg width="146" height="93" viewBox="0 0 146 93" fill="none" xmlns="http://www.w3.org/2000/svg">
<path d="M40.7961 80.6579L19.0739 36.8312H126.927L105.205 80.6579H40.7961ZM0 24.9844L33.2198 92.0105L33.4641 92.5032H112.537L146 24.9844H0Z" fill="#7B33E5"/>
<path d="M92.0507 30.9156C92.0507 41.4313 83.5097 49.9859 73.0126 49.9859C62.514 49.9859 53.974 41.4313 53.974 30.9156C53.974 20.3998 62.514 11.8453 73.0126 11.8453C83.5097 11.8453 92.0507 20.3998 92.0507 30.9156ZM73.0126 0C55.9925 0 42.1484 13.8687 42.1484 30.9156C42.1484 47.9625 55.9925 61.8312 73.0126 61.8312C90.0311 61.8312 103.877 47.9625 103.877 30.9156C103.877 13.8687 90.0311 0 73.0126 0Z" fill="#FF5A21"/>
</svg>
