<svg width="20" height="20" viewBox="0 0 20 20" fill="none" xmlns="http://www.w3.org/2000/svg">
<g clip-path="url(#clip0_291_164)">
<path d="M3.38996 15H16.4366C16.8382 15 17.2338 14.9033 17.59 14.7181C17.9463 14.5328 18.2527 14.2645 18.4833 13.9358C18.7139 13.6071 18.8619 13.2277 18.9149 12.8297C18.9678 12.4316 18.9241 12.0267 18.7875 11.6492L16.4108 5.07833C16.0049 3.61809 15.1319 2.33099 13.9252 1.41389C12.7186 0.496791 11.2447 0.000176732 9.72913 8.47759e-10C8.1514 -2.46602e-05 6.62083 0.53799 5.39013 1.52521C4.15944 2.51244 3.3022 3.88984 2.95996 5.43L1.00162 11.7633C0.886325 12.1372 0.860404 12.533 0.925949 12.9188C0.991493 13.3045 1.14667 13.6695 1.379 13.9844C1.61133 14.2992 1.91432 14.5551 2.26359 14.7315C2.61287 14.9079 2.99867 14.9999 3.38996 15Z" fill="white"/>
<path d="M5.91699 16.667C6.10825 17.6089 6.61927 18.4557 7.36344 19.064C8.10762 19.6722 9.0392 20.0045 10.0003 20.0045C10.9615 20.0045 11.893 19.6722 12.6372 19.064C13.3814 18.4557 13.8924 17.6089 14.0837 16.667H5.91699Z" fill="white"/>
</g>
<defs>
<clipPath id="clip0_291_164">
<rect width="20" height="20" fill="white"/>
</clipPath>
</defs>
</svg>
