<svg width="34" height="35" viewBox="0 0 34 35" fill="none" xmlns="http://www.w3.org/2000/svg">
<g clip-path="url(#clip0_254_1699)">
<path d="M21.3223 23.2919C30.6066 23.2453 33.91 18.3284 33.91 14.1122C33.91 11.7428 32.2315 9.76043 30.0033 9.28145C30.1954 8.73606 30.3622 8.23448 30.4738 7.85441C30.9725 6.1688 30.6504 4.38852 29.5893 2.96854C28.507 1.52171 26.8525 0.690918 25.0482 0.690918H8.8604C7.05611 0.690918 5.40017 1.52171 4.31787 2.96854C3.25677 4.38852 2.93463 6.17021 3.43339 7.85441C3.54642 8.23448 3.71173 8.73606 3.9053 9.28286C1.67713 9.76184 0 11.7442 0 14.1136C0 18.3298 3.30481 23.2467 12.5877 23.2933C12.6668 23.72 12.7162 24.1552 12.7162 24.5989V28.9493C12.7162 31.5292 10.546 31.7638 9.89042 31.7751H8.4775C7.69616 31.7751 7.06458 32.4067 7.06458 33.188C7.06458 33.9693 7.69616 34.6009 8.4775 34.6009H25.4325C26.2138 34.6009 26.8454 33.9693 26.8454 33.188C26.8454 32.4067 26.2138 31.7751 25.4325 31.7751H24.0309C23.364 31.7638 21.1938 31.5292 21.1938 28.9493V24.5975C21.1938 24.1552 21.2432 23.72 21.3223 23.2933V23.2919ZM28.897 11.9787C28.921 11.9787 28.9408 11.9928 28.9648 11.9928C30.1333 11.9928 31.0842 12.9437 31.0842 14.1122C31.0842 16.9861 28.8108 20.0422 22.5558 20.4279C22.8681 20.0055 23.2255 19.6141 23.6324 19.2679C26.0895 17.1797 27.7765 14.3891 28.897 11.9787ZM2.82583 14.1122C2.82583 12.9437 3.77673 11.9928 4.94521 11.9928C4.96923 11.9928 4.98901 11.9801 5.01162 11.9787C6.13347 14.3891 7.82049 17.1797 10.2776 19.2679C10.6845 19.6141 11.0419 20.0041 11.3542 20.4279C5.09922 20.0422 2.82583 16.9861 2.82583 14.1122ZM13.8353 14.4838C13.4623 14.2267 13.3054 13.7519 13.4538 13.3224L14.1871 11.0532L12.2571 9.64033C11.795 9.30123 11.6947 8.6527 12.0338 8.19068C12.2288 7.92505 12.5396 7.7668 12.8688 7.7668H15.244L15.966 5.51603C16.1482 4.96923 16.7388 4.67534 17.2856 4.85761C17.5965 4.96075 17.8409 5.20519 17.944 5.51603L18.6646 7.7668H21.0397C21.612 7.7668 22.0768 8.23024 22.0768 8.80389C22.0768 9.13592 21.9186 9.44676 21.6515 9.64174L19.7215 11.0547L20.4548 13.3238C20.63 13.8692 20.3305 14.4541 19.7837 14.6308C19.4672 14.7325 19.121 14.676 18.8525 14.4796L16.955 13.0836L15.056 14.4782C14.6943 14.748 14.1998 14.7494 13.8353 14.4838Z" fill="black"/>
</g>
<defs>
<clipPath id="clip0_254_1699">
<rect width="33.91" height="33.91" fill="white" transform="translate(0 0.689453)"/>
</clipPath>
</defs>
</svg>
