<svg width="20" height="20" viewBox="0 0 20 20" fill="none" xmlns="http://www.w3.org/2000/svg">
<g clip-path="url(#clip0_291_162)">
<path d="M6.66667 0C5.562 0.00132321 4.50296 0.440735 3.72185 1.22185C2.94073 2.00296 2.50132 3.062 2.5 4.16667V19.1667C2.50012 19.3182 2.54157 19.4669 2.6199 19.5967C2.69823 19.7264 2.81047 19.8324 2.94453 19.9031C3.07859 19.9738 3.22941 20.0066 3.38073 19.998C3.53206 19.9894 3.67817 19.9397 3.80333 19.8542L5.55833 18.655L7.31333 19.8542C7.45199 19.9491 7.61612 19.9999 7.78417 19.9999C7.95222 19.9999 8.11634 19.9491 8.255 19.8542L10.005 18.655L11.755 19.8542C11.8937 19.9493 12.058 20.0002 12.2262 20.0002C12.3945 20.0002 12.5588 19.9493 12.6975 19.8542L14.4475 18.6558L16.1975 19.8533C16.3226 19.9386 16.4685 19.9881 16.6197 19.9966C16.7708 20.0052 16.9214 19.9724 17.0553 19.9018C17.1892 19.8312 17.3013 19.7255 17.3797 19.596C17.458 19.4664 17.4996 19.318 17.5 19.1667V4.16667C17.4987 3.062 17.0593 2.00296 16.2782 1.22185C15.497 0.440735 14.438 0.00132321 13.3333 0L6.66667 0ZM11.6667 11.6667H6.66667C6.44565 11.6667 6.23369 11.5789 6.07741 11.4226C5.92113 11.2663 5.83333 11.0543 5.83333 10.8333C5.83333 10.6123 5.92113 10.4004 6.07741 10.2441C6.23369 10.0878 6.44565 10 6.66667 10H11.6667C11.8877 10 12.0996 10.0878 12.2559 10.2441C12.4122 10.4004 12.5 10.6123 12.5 10.8333C12.5 11.0543 12.4122 11.2663 12.2559 11.4226C12.0996 11.5789 11.8877 11.6667 11.6667 11.6667ZM14.1667 7.5C14.1667 7.72101 14.0789 7.93297 13.9226 8.08926C13.7663 8.24554 13.5543 8.33333 13.3333 8.33333H6.66667C6.44565 8.33333 6.23369 8.24554 6.07741 8.08926C5.92113 7.93297 5.83333 7.72101 5.83333 7.5C5.83333 7.27899 5.92113 7.06702 6.07741 6.91074C6.23369 6.75446 6.44565 6.66667 6.66667 6.66667H13.3333C13.5543 6.66667 13.7663 6.75446 13.9226 6.91074C14.0789 7.06702 14.1667 7.27899 14.1667 7.5Z" fill="white"/>
</g>
<defs>
<clipPath id="clip0_291_162">
<rect width="20" height="20" fill="white"/>
</clipPath>
</defs>
</svg>
