<svg width="24" height="24" viewBox="0 0 24 24" fill="none" xmlns="http://www.w3.org/2000/svg">
<g clip-path="url(#clip0_735_320)">
<path d="M19 24H13C10.243 24 8 21.757 8 19V13C8 10.243 10.243 8 13 8H19C21.757 8 24 10.243 24 13V19C24 21.757 21.757 24 19 24ZM6 18V9C6 7.346 7.346 6 9 6H18C18.552 6 19 5.552 19 5C19 4.448 18.552 4 18 4H9C6.243 4 4 6.243 4 9V18C4 18.552 4.448 19 5 19C5.552 19 6 18.552 6 18ZM2 14V5C2 3.346 3.346 2 5 2H14C14.552 2 15 1.552 15 1C15 0.448 14.552 0 14 0H5C2.243 0 0 2.243 0 5V14C0 14.552 0.448 15 1 15C1.552 15 2 14.552 2 14Z" fill="white"/>
</g>
<defs>
<clipPath id="clip0_735_320">
<rect width="24" height="24" fill="white"/>
</clipPath>
</defs>
</svg>
