<svg width="24" height="24" viewBox="0 0 24 24" fill="none" xmlns="http://www.w3.org/2000/svg">
<g clip-path="url(#clip0_207_428)">
<path d="M2.82907 17.331C2.05807 17.643 1.18607 17.271 0.875066 16.506C0.657066 15.971 0.478066 15.413 0.341066 14.85C0.145066 14.044 0.638066 13.233 1.44307 13.038C1.56307 13.009 1.68207 12.995 1.79907 12.995C2.47507 12.995 3.08807 13.454 3.25507 14.14C3.35907 14.563 3.49207 14.979 3.65407 15.378C3.96607 16.146 3.59607 17.021 2.82907 17.332V17.331ZM1.44807 10.926C2.24707 11.126 3.06407 10.634 3.26307 9.829C3.36707 9.409 3.50307 8.993 3.66707 8.591C3.98007 7.824 3.61207 6.948 2.84607 6.635C2.66007 6.559 2.46807 6.524 2.28007 6.524C1.68807 6.524 1.12807 6.876 0.890066 7.457C0.671066 7.993 0.490066 8.55 0.351066 9.111C0.152066 9.915 0.643066 10.728 1.44807 10.926ZM6.20807 5.111C6.54107 4.831 6.89707 4.573 7.26507 4.344C7.96907 3.907 8.18507 2.983 7.74807 2.279C7.46407 1.821 6.97407 1.57 6.47307 1.57C6.20207 1.57 5.92907 1.642 5.68307 1.796C5.19407 2.1 4.72007 2.443 4.27707 2.817C3.64307 3.35 3.56207 4.296 4.09507 4.93C4.62707 5.563 5.57407 5.646 6.20807 5.111ZM7.23807 19.637C6.86907 19.407 6.51307 19.147 6.18107 18.866C5.90007 18.628 5.55507 18.512 5.21307 18.512C4.78607 18.512 4.36307 18.693 4.06707 19.043C3.53207 19.676 3.61107 20.622 4.24407 21.157C4.68407 21.529 5.15507 21.874 5.64407 22.18C6.34607 22.617 7.27207 22.408 7.71207 21.705C8.15107 21.003 7.94007 20.077 7.23807 19.637ZM24.0001 11.999C24.0001 5.715 19.1421 0.554 12.9851 0.05C12.9511 0.045 12.2971 0 12.0001 0C11.7131 0 11.4291 0.01 11.1471 0.03C10.3201 0.089 9.69807 0.806 9.75707 1.633C9.81607 2.46 10.5481 3.08 11.3601 3.023C11.7281 2.997 12.1051 3.006 12.4761 3.025C17.2171 3.275 21.0001 7.199 21.0001 12.001C21.0001 16.964 16.9621 21.001 12.0001 21.001C11.7831 21.001 11.2841 20.975 11.2481 20.975C10.4691 20.975 9.81007 21.579 9.75407 22.369C9.69507 23.196 10.3171 23.913 11.1441 23.972C11.4271 23.993 11.7131 24.002 12.0001 24.002C12.2871 24.002 12.9281 23.958 12.9641 23.953C19.1311 23.459 24.0001 18.294 24.0001 12.002V11.999ZM12.0001 17.999C12.8291 17.999 13.5001 17.327 13.5001 16.499V11.999H16.1231C16.9111 11.999 17.3081 11.049 16.7551 10.488L12.5531 6.23C12.2491 5.922 11.7531 5.922 11.4491 6.23L7.24707 10.488C6.69407 11.049 7.09107 11.999 7.87907 11.999H10.5021V16.499C10.5021 17.327 11.1731 17.999 12.0021 17.999H12.0001Z" fill="white"/>
</g>
<defs>
<clipPath id="clip0_207_428">
<rect width="24" height="24" fill="white"/>
</clipPath>
</defs>
</svg>
