<svg width="24" height="24" viewBox="0 0 24 24" fill="none" xmlns="http://www.w3.org/2000/svg">
<g clip-path="url(#clip0_748_182)">
<path d="M24 16C24 18.631 20.609 22.203 18.926 23.488C18.38 23.904 17.62 23.904 17.075 23.488C15.391 22.203 12.001 18.631 12.001 16C12.001 14.343 13.344 13 15.001 13C16.658 13 18.001 14.343 18.001 16C18.001 14.343 19.344 13 21.001 13C22.658 13 24 14.343 24 16ZM14.618 24H5C2.243 24 0 21.757 0 19V5C0 2.243 2.243 0 5 0H14C16.757 0 19 2.243 19 5V11.435C18.646 11.591 18.306 11.773 18 12.002C17.414 11.561 16.724 11.256 15.978 11.107C15.982 11.07 16 11.038 16 11C16 10.447 15.552 10 15 10H9C8.448 10 8 10.447 8 11C8 11.553 8.448 12 9 12H12.031C10.806 12.912 10 14.359 10 16C10 18.984 12.73 22.213 14.618 24ZM8 6C8 6.553 8.448 7 9 7H15C15.552 7 16 6.553 16 6C16 5.447 15.552 5 15 5H9C8.448 5 8 5.447 8 6ZM6 16C6 15.172 5.328 14.5 4.5 14.5C3.672 14.5 3 15.172 3 16C3 16.828 3.672 17.5 4.5 17.5C5.328 17.5 6 16.828 6 16ZM6 11C6 10.172 5.328 9.5 4.5 9.5C3.672 9.5 3 10.172 3 11C3 11.828 3.672 12.5 4.5 12.5C5.328 12.5 6 11.828 6 11ZM6 6C6 5.172 5.328 4.5 4.5 4.5C3.672 4.5 3 5.172 3 6C3 6.828 3.672 7.5 4.5 7.5C5.328 7.5 6 6.828 6 6Z" fill="black"/>
</g>
<defs>
<clipPath id="clip0_748_182">
<rect width="24" height="24" fill="white"/>
</clipPath>
</defs>
</svg>
