<svg width="24" height="24" viewBox="0 0 24 24" fill="none" xmlns="http://www.w3.org/2000/svg">
<g clip-path="url(#clip0_1290_266)">
<path d="M22 12H24C24 18.617 18.617 24 12 24C7.945 24 4.206 21.942 2.005 18.632L2 21H0V17.009C0 15.902 0.901 15 2.008 15H6V17H3.363C5.139 20.06 8.415 22 12 22C17.514 22 22 17.514 22 12ZM22 3L21.995 5.353C19.806 2.04 16.106 0 12 0C5.383 0 0 5.383 0 12H2C2 6.486 6.486 2 12 2C15.64 2 18.9 3.921 20.666 7H18V9H21.991C23.098 9 24 8.099 24 6.991V3H22ZM17 17H7V9.5C7 8.121 8.122 7 9.5 7H14.5C15.879 7 17 8.121 17 9.5V17ZM13.5 9H10.5V11H13.5V9Z" fill="white"/>
</g>
<defs>
<clipPath id="clip0_1290_266">
<rect width="24" height="24" fill="white"/>
</clipPath>
</defs>
</svg>
