<svg width="24" height="24" viewBox="0 0 24 24" fill="none" xmlns="http://www.w3.org/2000/svg">
<g clip-path="url(#clip0_1266_215)">
<path d="M24 7L21.802 0H17V5H15V0H9V5H7V0H2.198L0.024 6.783L0 8C0 9.005 0.385 9.914 1 10.618V21C1 22.654 2.346 24 4 24H12C13.654 24 15 22.654 15 21V11.438C15.372 11.221 15.717 10.964 16 10.643C16.733 11.475 17.807 12 19 12H20C20.347 12 20.678 11.942 21 11.858V24H23V10.618C23.615 9.915 24 9.006 24 8V7ZM13 17H3V11.858C3.322 11.942 3.653 12 4 12H5C6.2 12 7.266 11.458 8 10.618C8.734 11.458 9.8 12 11 12H13V17Z" fill="black"/>
</g>
<defs>
<clipPath id="clip0_1266_215">
<rect width="24" height="24" fill="white"/>
</clipPath>
</defs>
</svg>
