<svg width="20" height="20" viewBox="0 0 20 20" fill="none" xmlns="http://www.w3.org/2000/svg">
<g clip-path="url(#clip0_213_142)">
<path d="M19.1667 10.8333H0.833333C0.373333 10.8333 0 10.46 0 10C0 9.54 0.373333 9.16667 0.833333 9.16667H19.1667C19.6267 9.16667 20 9.54 20 10C20 10.46 19.6267 10.8333 19.1667 10.8333ZM6.66667 19.1667C6.66667 18.7067 6.29333 18.3333 5.83333 18.3333H4.16667C2.78833 18.3333 1.66667 17.2117 1.66667 15.8333V14.1667C1.66667 13.7067 1.29333 13.3333 0.833333 13.3333C0.373333 13.3333 0 13.7067 0 14.1667V15.8333C0 18.1308 1.86917 20 4.16667 20H5.83333C6.29333 20 6.66667 19.6267 6.66667 19.1667ZM20 15.8333V14.1667C20 13.7067 19.6267 13.3333 19.1667 13.3333C18.7067 13.3333 18.3333 13.7067 18.3333 14.1667V15.8333C18.3333 17.2117 17.2117 18.3333 15.8333 18.3333H14.1667C13.7067 18.3333 13.3333 18.7067 13.3333 19.1667C13.3333 19.6267 13.7067 20 14.1667 20H15.8333C18.1308 20 20 18.1308 20 15.8333ZM20 5.83333V4.16667C20 1.86917 18.1308 0 15.8333 0H14.1667C13.7067 0 13.3333 0.373333 13.3333 0.833333C13.3333 1.29333 13.7067 1.66667 14.1667 1.66667H15.8333C17.2117 1.66667 18.3333 2.78833 18.3333 4.16667V5.83333C18.3333 6.29333 18.7067 6.66667 19.1667 6.66667C19.6267 6.66667 20 6.29333 20 5.83333ZM1.66667 5.83333V4.16667C1.66667 2.78833 2.78833 1.66667 4.16667 1.66667H5.83333C6.29333 1.66667 6.66667 1.29333 6.66667 0.833333C6.66667 0.373333 6.29333 0 5.83333 0H4.16667C1.86917 0 0 1.86917 0 4.16667V5.83333C0 6.29333 0.373333 6.66667 0.833333 6.66667C1.29333 6.66667 1.66667 6.29333 1.66667 5.83333Z" fill="white"/>
</g>
<defs>
<clipPath id="clip0_213_142">
<rect width="20" height="20" fill="white"/>
</clipPath>
</defs>
</svg>
