<svg width="20" height="20" viewBox="0 0 20 20" fill="none" xmlns="http://www.w3.org/2000/svg">
<path d="M5.06592 18.7504C5.06621 18.419 5.1981 18.1013 5.43258 17.8671L11.8259 11.4738C12.0194 11.2803 12.1729 11.0506 12.2777 10.7978C12.3824 10.545 12.4363 10.2741 12.4363 10.0004C12.4363 9.72679 12.3824 9.45584 12.2777 9.20304C12.1729 8.95024 12.0194 8.72055 11.8259 8.52709L5.44092 2.13792C5.21322 1.90217 5.08723 1.58642 5.09008 1.25867C5.09292 0.930924 5.22438 0.617408 5.45614 0.385648C5.6879 0.153888 6.00142 0.0224265 6.32917 0.0195785C6.65691 0.0167305 6.97267 0.142723 7.20842 0.370421L13.5934 6.75459C14.4519 7.61481 14.9341 8.7805 14.9341 9.99584C14.9341 11.2112 14.4519 12.3769 13.5934 13.2371L7.20009 19.6304C7.02552 19.8051 6.80312 19.9242 6.56096 19.9726C6.31879 20.021 6.06772 19.9966 5.83941 19.9024C5.6111 19.8083 5.41579 19.6486 5.27813 19.4436C5.14047 19.2386 5.06663 18.9974 5.06592 18.7504Z" fill="white"/>
</svg>
