<svg width="20" height="20" viewBox="0 0 20 20" fill="none" xmlns="http://www.w3.org/2000/svg">
<path d="M0.374342 15C1.14043 16.1963 2.83935 16.6073 4.16896 15.918C4.16987 15.9176 4.17074 15.9171 4.17165 15.9166L4.58378 15.7025C5.36176 16.3014 6.25601 16.7658 7.22149 17.0725V17.5C7.22149 18.8807 8.46548 20 10 20C11.5345 20 12.7785 18.8807 12.7785 17.5V17.0725C13.7441 16.7654 14.6384 16.3004 15.4162 15.7008L15.8302 15.9158C17.1601 16.6062 18.8603 16.1958 19.6275 14.9991C20.3948 13.8025 19.9387 12.2728 18.6087 11.5825L18.1975 11.3691C18.3826 10.4629 18.3826 9.53379 18.1975 8.62746L18.6087 8.41414C19.9386 7.72379 20.3948 6.1941 19.6275 4.99746C18.8603 3.80086 17.1602 3.39043 15.8302 4.08078L15.4181 4.29496C14.6393 3.6968 13.7445 3.2332 12.7785 2.9275V2.5C12.7785 1.1193 11.5345 0 10 0C8.46548 0 7.22149 1.1193 7.22149 2.5V2.9275C6.25588 3.23465 5.36159 3.69965 4.58378 4.29918L4.16978 4.08336C2.83983 3.39297 1.13973 3.8034 0.372476 5C-0.394783 6.1966 0.0613263 7.72633 1.39128 8.41668L1.80249 8.63C1.61738 9.53629 1.61738 10.4654 1.80249 11.3717L1.39128 11.585C0.0650166 12.2772 -0.389617 13.8039 0.374342 15ZM10 6.66668C12.046 6.66668 13.7047 8.15906 13.7047 10C13.7047 11.8409 12.046 13.3333 10 13.3333C7.95398 13.3333 6.29534 11.8409 6.29534 10C6.29534 8.15906 7.95398 6.66668 10 6.66668Z" fill="white"/>
</svg>
