<svg width="20" height="20" viewBox="0 0 20 20" fill="none" xmlns="http://www.w3.org/2000/svg">
<g clip-path="url(#clip0_96_712)">
<path d="M14.37 3.33344C14.1369 3.10042 13.84 2.94174 13.5167 2.87746C13.1935 2.81319 12.8584 2.84619 12.5539 2.97231C12.2494 3.09842 11.9891 3.31199 11.806 3.58601C11.6229 3.86002 11.5251 4.18219 11.525 4.51177V5.83344H7.5C5.51155 5.83564 3.60518 6.62653 2.19914 8.03257C0.79309 9.43862 0.00220571 11.345 0 13.3334L0 19.1668C0 19.3878 0.0877974 19.5997 0.244078 19.756C0.400358 19.9123 0.61232 20.0001 0.833333 20.0001C1.05435 20.0001 1.26631 19.9123 1.42259 19.756C1.57887 19.5997 1.66667 19.3878 1.66667 19.1668C1.66799 17.8411 2.1952 16.5701 3.13259 15.6327C4.06999 14.6953 5.34099 14.1681 6.66667 14.1668H11.525V15.4884C11.5251 15.818 11.6229 16.1402 11.806 16.4142C11.9891 16.6882 12.2494 16.9018 12.5539 17.0279C12.8584 17.154 13.1935 17.187 13.5167 17.1227C13.84 17.0585 14.1369 16.8998 14.37 16.6668L19.2692 11.7676C19.7378 11.2988 20.0011 10.663 20.0011 10.0001C20.0011 9.33719 19.7378 8.70142 19.2692 8.2326L14.37 3.33344Z" fill="white"/>
</g>
<defs>
<clipPath id="clip0_96_712">
<rect width="20" height="20" fill="white"/>
</clipPath>
</defs>
</svg>
