<svg width="20" height="20" viewBox="0 0 20 20" fill="none" xmlns="http://www.w3.org/2000/svg">
<path d="M17.4993 3.33332H14.916C14.5173 1.39465 12.8119 0.0025 10.8327 0H9.16598C7.18672 0.0025 5.48133 1.39465 5.08266 3.33332H2.49934C2.0391 3.33332 1.66602 3.70641 1.66602 4.16664C1.66602 4.62687 2.0391 5 2.49934 5H3.33266V15.8333C3.33543 18.1334 5.1993 19.9973 7.49934 20H12.4993C14.7994 19.9973 16.6632 18.1334 16.666 15.8333V5H17.4993C17.9596 5 18.3327 4.62691 18.3327 4.16668C18.3327 3.70645 17.9596 3.33332 17.4993 3.33332ZM9.16602 14.1667C9.16602 14.6269 8.79293 15 8.3327 15C7.87242 15 7.49934 14.6269 7.49934 14.1667V9.16668C7.49934 8.70645 7.87242 8.33336 8.33266 8.33336C8.79289 8.33336 9.16598 8.70645 9.16598 9.16668V14.1667H9.16602ZM12.4993 14.1667C12.4993 14.6269 12.1262 15 11.666 15C11.2058 15 10.8327 14.6269 10.8327 14.1667V9.16668C10.8327 8.70645 11.2058 8.33336 11.666 8.33336C12.1262 8.33336 12.4993 8.70645 12.4993 9.16668V14.1667ZM6.80852 3.33332C7.16297 2.33523 8.10687 1.66793 9.16602 1.66664H10.8327C11.8918 1.66793 12.8357 2.33523 13.1902 3.33332H6.80852Z" fill="white"/>
</svg>
