<svg width="16" height="16" viewBox="0 0 16 16" fill="none" xmlns="http://www.w3.org/2000/svg">
<g clip-path="url(#clip0_731_168)">
<path d="M7.72151 0.625488C6.24688 0.625488 4.80536 1.06277 3.57924 1.88203C2.35313 2.70129 1.39749 3.86574 0.833174 5.22813C0.268856 6.59051 0.121204 8.08964 0.408891 9.53594C0.696578 10.9822 1.40668 12.3108 2.44941 13.3535C3.49213 14.3962 4.82064 15.1063 6.26694 15.394C7.71324 15.6817 9.21237 15.534 10.5748 14.9697C11.9371 14.4054 13.1016 13.4498 13.9209 12.2236C14.7401 10.9975 15.1774 9.55601 15.1774 8.08137C15.1753 6.1046 14.389 4.20941 12.9913 2.81163C11.5935 1.41384 9.69828 0.627626 7.72151 0.625488ZM7.72151 14.2946C6.49265 14.2946 5.29138 13.9302 4.26962 13.2475C3.24786 12.5648 2.4515 11.5944 1.98123 10.4591C1.51096 9.32375 1.38792 8.07448 1.62766 6.86923C1.8674 5.66398 2.45915 4.55689 3.32809 3.68795C4.19703 2.81901 5.30412 2.22726 6.50937 1.98752C7.71462 1.74778 8.96389 1.87082 10.0992 2.34109C11.2345 2.81136 12.2049 3.60772 12.8876 4.62948C13.5703 5.65124 13.9347 6.85251 13.9347 8.08137C13.9329 9.72867 13.2778 11.308 12.1129 12.4728C10.9481 13.6376 9.36881 14.2928 7.72151 14.2946Z" fill="white"/>
<path d="M7.71921 6.83887H7.09789C6.9331 6.83887 6.77506 6.90433 6.65854 7.02085C6.54202 7.13737 6.47656 7.29541 6.47656 7.46019C6.47656 7.62498 6.54202 7.78301 6.65854 7.89953C6.77506 8.01605 6.9331 8.08151 7.09789 8.08151H7.71921V11.8095C7.71921 11.9742 7.78467 12.1323 7.90119 12.2488C8.01771 12.3653 8.17575 12.4308 8.34053 12.4308C8.50532 12.4308 8.66335 12.3653 8.77988 12.2488C8.8964 12.1323 8.96186 11.9742 8.96186 11.8095V8.08151C8.96186 7.75194 8.83094 7.43587 8.59789 7.20283C8.36485 6.96979 8.04878 6.83887 7.71921 6.83887Z" fill="white"/>
<path d="M7.72105 5.5959C8.23577 5.5959 8.65303 5.17864 8.65303 4.66392C8.65303 4.1492 8.23577 3.73193 7.72105 3.73193C7.20633 3.73193 6.78906 4.1492 6.78906 4.66392C6.78906 5.17864 7.20633 5.5959 7.72105 5.5959Z" fill="white"/>
</g>
<defs>
<clipPath id="clip0_731_168">
<rect width="14.9118" height="14.9118" fill="white" transform="translate(0.265625 0.625)"/>
</clipPath>
</defs>
</svg>
