<svg width="24" height="24" viewBox="0 0 24 24" fill="none" xmlns="http://www.w3.org/2000/svg">
<path d="M20.484 20C20.2944 19.9998 20.1087 19.9458 19.9486 19.8441C19.7886 19.7424 19.6607 19.5972 19.58 19.4256C19.4993 19.254 19.469 19.063 19.4928 18.8749C19.5165 18.6867 19.5932 18.5092 19.714 18.363C21.1822 16.5675 21.9843 14.3194 21.9843 12C21.9843 9.6806 21.1822 7.43256 19.714 5.63701C19.6304 5.53569 19.5675 5.41889 19.529 5.29328C19.4905 5.16766 19.4771 5.03569 19.4896 4.9049C19.5021 4.77411 19.5402 4.64706 19.6018 4.531C19.6634 4.41495 19.7472 4.31216 19.8485 4.2285C20.0531 4.05956 20.3165 3.97882 20.5806 4.00405C20.8448 4.02927 21.0881 4.15839 21.257 4.363C23.0186 6.51834 23.9809 9.21638 23.9809 12C23.9809 14.7836 23.0186 17.4817 21.257 19.637C21.163 19.7508 21.0449 19.8424 20.9112 19.9052C20.7776 19.9679 20.6317 20.0003 20.484 20ZM4.15103 19.771C4.25236 19.6874 4.33624 19.5847 4.39787 19.4687C4.4595 19.3527 4.49767 19.2257 4.5102 19.095C4.52274 18.9642 4.5094 18.8323 4.47093 18.7067C4.43247 18.5811 4.36963 18.4643 4.28603 18.363C2.81782 16.5675 2.01573 14.3194 2.01573 12C2.01573 9.6806 2.81782 7.43256 4.28603 5.63701C4.36968 5.53576 4.43257 5.41902 4.47111 5.29347C4.50965 5.16791 4.52308 5.036 4.51063 4.90525C4.49819 4.77451 4.46012 4.64749 4.39859 4.53146C4.33706 4.41543 4.25328 4.31266 4.15203 4.22901C4.05078 4.14535 3.93404 4.08246 3.80849 4.04392C3.68294 4.00539 3.55102 3.99196 3.42027 4.0044C3.28953 4.01684 3.16252 4.05492 3.04649 4.11644C2.93045 4.17797 2.82768 4.26176 2.74403 4.363C0.98193 6.5181 0.0192871 9.21623 0.0192871 12C0.0192871 14.7838 0.98193 17.4819 2.74403 19.637C2.91293 19.8412 3.15598 19.97 3.4198 19.9952C3.68361 20.0203 3.94661 19.9397 4.15103 19.771ZM20 12C19.9976 14.121 19.154 16.1545 17.6542 17.6542C16.1545 19.154 14.121 19.9976 12 20C1.41203 19.624 1.41503 4.37401 12 4.00001C14.121 4.00239 16.1545 4.84601 17.6542 6.34578C19.154 7.84556 19.9976 9.879 20 12ZM13 16C13 15.7348 12.8947 15.4804 12.7071 15.2929C12.5196 15.1054 12.2652 15 12 15C11.7348 15 11.4805 15.1054 11.2929 15.2929C11.1054 15.4804 11 15.7348 11 16C11 16.2652 11.1054 16.5196 11.2929 16.7071C11.4805 16.8947 11.7348 17 12 17C12.2652 17 12.5196 16.8947 12.7071 16.7071C12.8947 16.5196 13 16.2652 13 16ZM13 8.00001C13 7.73479 12.8947 7.48044 12.7071 7.2929C12.5196 7.10536 12.2652 7.00001 12 7.00001C11.7348 7.00001 11.4805 7.10536 11.2929 7.2929C11.1054 7.48044 11 7.73479 11 8.00001V12C11 12.2652 11.1054 12.5196 11.2929 12.7071C11.4805 12.8946 11.7348 13 12 13C12.2652 13 12.5196 12.8946 12.7071 12.7071C12.8947 12.5196 13 12.2652 13 12V8.00001Z" fill="black"/>
</svg>
