<svg width="20" height="20" viewBox="0 0 20 20" fill="none" xmlns="http://www.w3.org/2000/svg">
<g clip-path="url(#clip0_291_178)">
<path d="M2.5 5C2.5 4.0111 2.79325 3.0444 3.34265 2.22215C3.89206 1.39991 4.67295 0.759043 5.58658 0.380605C6.50021 0.00216643 7.50555 -0.0968503 8.47545 0.0960759C9.44536 0.289002 10.3363 0.765206 11.0355 1.46447C11.7348 2.16373 12.211 3.05465 12.4039 4.02455C12.5969 4.99446 12.4978 5.99979 12.1194 6.91342C11.741 7.82705 11.1001 8.60794 10.2779 9.15735C9.45561 9.70676 8.48891 10 7.5 10C6.17432 9.99868 4.90332 9.47147 3.96593 8.53408C3.02853 7.59668 2.50132 6.32568 2.5 5ZM7.5 11.6667C5.51155 11.6689 3.60518 12.4598 2.19914 13.8658C0.79309 15.2718 0.00220571 17.1782 0 19.1667C0 19.3877 0.0877974 19.5996 0.244078 19.7559C0.400358 19.9122 0.61232 20 0.833333 20H14.1667C14.3877 20 14.5996 19.9122 14.7559 19.7559C14.9122 19.5996 15 19.3877 15 19.1667C14.9978 17.1782 14.2069 15.2718 12.8009 13.8658C11.3948 12.4598 9.48845 11.6689 7.5 11.6667ZM17.845 10L19.7558 8.08917C19.9076 7.932 19.9916 7.7215 19.9897 7.503C19.9878 7.28451 19.9002 7.07549 19.7457 6.92099C19.5912 6.76648 19.3822 6.67884 19.1637 6.67694C18.9452 6.67504 18.7347 6.75904 18.5775 6.91084L16.6667 8.82167L14.7558 6.91084C14.5987 6.75904 14.3882 6.67504 14.1697 6.67694C13.9512 6.67884 13.7422 6.76648 13.5877 6.92099C13.4331 7.07549 13.3455 7.28451 13.3436 7.503C13.3417 7.7215 13.4257 7.932 13.5775 8.08917L15.4883 10L13.5775 11.9108C13.4979 11.9877 13.4344 12.0797 13.3907 12.1813C13.3471 12.283 13.3241 12.3924 13.3231 12.503C13.3222 12.6137 13.3432 12.7234 13.3851 12.8258C13.427 12.9282 13.4889 13.0213 13.5672 13.0995C13.6454 13.1777 13.7385 13.2396 13.8409 13.2815C13.9433 13.3234 14.053 13.3445 14.1637 13.3435C14.2743 13.3426 14.3837 13.3196 14.4853 13.2759C14.587 13.2322 14.679 13.1688 14.7558 13.0892L16.6667 11.1783L18.5775 13.0892C18.7347 13.241 18.9452 13.325 19.1637 13.3231C19.3822 13.3212 19.5912 13.2335 19.7457 13.079C19.9002 12.9245 19.9878 12.7155 19.9897 12.497C19.9916 12.2785 19.9076 12.068 19.7558 11.9108L17.845 10Z" fill="white"/>
</g>
<defs>
<clipPath id="clip0_291_178">
<rect width="20" height="20" fill="white"/>
</clipPath>
</defs>
</svg>
