<svg width="16" height="16" viewBox="0 0 16 16" fill="none" xmlns="http://www.w3.org/2000/svg">
<g clip-path="url(#clip0_889_174)">
<path d="M11.2668 15.9997H4.7335C4.5335 15.9997 4.34417 15.9097 4.2175 15.755C4.09083 15.6003 4.04083 15.3963 4.08017 15.2003C4.45683 13.3457 6.1055 11.9997 8.00017 11.9997C9.89483 11.9997 11.5435 13.3457 11.9202 15.2003C11.9602 15.3963 11.9095 15.6003 11.7828 15.755C11.6562 15.9097 11.4668 15.9997 11.2668 15.9997ZM12.0002 5.33301C13.4708 5.33301 14.6668 4.13701 14.6668 2.66634C14.6668 1.19568 13.4708 -0.000321622 12.0002 -0.000321622C10.5295 -0.000321622 9.3335 1.19568 9.3335 2.66634C9.3335 4.13701 10.5295 5.33301 12.0002 5.33301ZM15.8048 14.8617L10.5115 9.56834C10.6135 9.28301 10.6668 8.97901 10.6668 8.66634C10.6668 7.95434 10.3895 7.28434 9.8855 6.78101C9.16217 6.05768 8.05283 5.85368 7.11217 6.16901L5.68017 4.73701C6.2915 4.23968 6.66683 3.48434 6.66683 2.66634C6.66683 1.19568 5.47083 -0.000321622 4.00017 -0.000321622C3.18283 -0.000321622 2.42683 0.375012 1.9295 0.986345L1.13817 0.195012C0.8775 -0.0656549 0.456167 -0.0656549 0.1955 0.195012C-0.0651667 0.455678 -0.0651667 0.877012 0.1955 1.13768L14.8622 15.8043C14.9922 15.9343 15.1628 15.9997 15.3335 15.9997C15.5042 15.9997 15.6748 15.9343 15.8048 15.8043C16.0655 15.5437 16.0655 15.1223 15.8048 14.8617ZM8.08417 10.6517C8.2935 10.861 8.12083 11.2157 7.82683 11.1823C7.24883 11.1177 6.68817 10.865 6.24483 10.4217C5.8015 9.97834 5.54883 9.41768 5.48417 8.83968C5.4515 8.54568 5.8055 8.37301 6.01483 8.58234L8.08417 10.6517ZM4.00017 8.66634C4.00017 8.09701 4.1195 7.55568 4.3335 7.06568L3.56883 6.30101C3.40217 6.13434 3.1595 6.06768 2.93083 6.12701C1.46017 6.50634 0.3155 7.71301 0.0135 9.20034C-0.0265 9.39634 0.0241667 9.59968 0.150833 9.75501C0.2775 9.91035 0.466833 9.99968 0.666833 9.99968H4.22817C4.08083 9.58234 4.00017 9.13368 4.00017 8.66634ZM15.9868 9.20034C15.6102 7.34568 13.9335 5.99968 12.0002 5.99968C11.3335 5.99968 11.3502 6.46768 11.4648 6.66634C11.8055 7.25501 12.0002 7.93768 12.0002 8.66634C12.0002 9.13368 11.9195 9.58234 11.7722 9.99968H15.3335C15.5335 9.99968 15.7228 9.90968 15.8495 9.75501C15.9762 9.60034 16.0262 9.39634 15.9868 9.20034Z" fill="white"/>
</g>
<defs>
<clipPath id="clip0_889_174">
<rect width="16" height="16" fill="white"/>
</clipPath>
</defs>
</svg>
