<svg width="16" height="16" viewBox="0 0 16 16" fill="none" xmlns="http://www.w3.org/2000/svg">
<g clip-path="url(#clip0_735_333)">
<path d="M5.33333 0H3C1.34333 0 0 1.34333 0 3V5.33333C0 6.07 0.596667 6.66667 1.33333 6.66667H5.33333C6.07 6.66667 6.66667 6.07 6.66667 5.33333V1.33333C6.66667 0.596667 6.07 0 5.33333 0ZM9.33333 6.66667H13.3333C14.07 6.66667 14.6667 6.07 14.6667 5.33333V3C14.6667 1.34333 13.3233 0 11.6667 0H9.33333C8.59667 0 8 0.596667 8 1.33333V5.33333C8 6.07 8.59667 6.66667 9.33333 6.66667ZM5.33333 8H1.33333C0.596667 8 0 8.59667 0 9.33333V11.6667C0 13.3233 1.34333 14.6667 3 14.6667H5.33333C6.07 14.6667 6.66667 14.07 6.66667 13.3333V9.33333C6.66667 8.59667 6.07 8 5.33333 8ZM15.8047 14.862L14.1113 13.1687C14.4607 12.6413 14.6667 12.0113 14.6667 11.3333C14.6667 9.49533 13.1713 8 11.3333 8C9.49533 8 8 9.49533 8 11.3333C8 13.1713 9.49533 14.6667 11.3333 14.6667C12.0113 14.6667 12.6413 14.4607 13.1687 14.1113L14.862 15.8047C14.992 15.9347 15.1627 16 15.3333 16C15.504 16 15.6747 15.9347 15.8047 15.8047C16.0653 15.544 16.0653 15.1227 15.8047 14.862Z" fill="white"/>
</g>
<defs>
<clipPath id="clip0_735_333">
<rect width="16" height="16" fill="white"/>
</clipPath>
</defs>
</svg>
