<svg width="24" height="24" viewBox="0 0 24 24" fill="none" xmlns="http://www.w3.org/2000/svg">
<g clip-path="url(#clip0_996_97)">
<path d="M10.2471 9.752L14.4341 5.566L18.4341 9.566L14.2481 13.753L10.2471 9.752ZM8.83307 11.166L0.833074 19.166C0.437595 19.5616 0.168289 20.0656 0.0591982 20.6143C-0.0498923 21.163 0.00612992 21.7317 0.220183 22.2485C0.434237 22.7653 0.796712 23.2071 1.26179 23.518C1.72687 23.8288 2.27367 23.9948 2.83307 23.995C3.20473 23.9962 3.57291 23.9235 3.91625 23.7812C4.25958 23.6388 4.57122 23.4297 4.83307 23.166L12.8331 15.166L8.83307 11.166ZM18.6671 17.3L20.0001 19.962L21.3331 17.3L24.0001 15.962L21.3331 14.628L20.0001 11.962L18.6671 14.628L16.0001 15.962L18.6671 17.3ZM6.66707 5.338L8.00007 8L9.33307 5.333L12.0001 4L9.33307 2.667L8.00007 0L6.66707 2.667L4.00007 4L6.66707 5.338ZM19.3331 4.672L20.5001 7L21.6671 4.667L24.0001 3.5L21.6671 2.333L20.5001 0L19.3331 2.333L17.0001 3.5L19.3331 4.672Z" fill="black"/>
</g>
<defs>
<clipPath id="clip0_996_97">
<rect width="24" height="24" fill="white"/>
</clipPath>
</defs>
</svg>
