<svg width="20" height="20" viewBox="0 0 20 20" fill="none" xmlns="http://www.w3.org/2000/svg">
<g clip-path="url(#clip0_291_115)">
<path d="M8.53907 8.12667L12.0282 4.63833L15.3616 7.97167L11.8732 11.4608L8.53907 8.12667ZM7.36073 9.305L0.694066 15.9717C0.364499 16.3014 0.140078 16.7214 0.0491691 17.1786C-0.0417397 17.6358 0.00494551 18.1097 0.183323 18.5404C0.361701 18.9711 0.663764 19.3393 1.05133 19.5983C1.43889 19.8574 1.89456 19.9957 2.36073 19.9958C2.67045 19.9968 2.97727 19.9362 3.26338 19.8176C3.54949 19.699 3.80919 19.5248 4.0274 19.305L10.6941 12.6383L7.36073 9.305ZM15.5557 14.4167L16.6666 16.635L17.7774 14.4167L19.9999 13.3017L17.7774 12.19L16.6666 9.96833L15.5557 12.19L13.3332 13.3017L15.5557 14.4167ZM5.55573 4.44833L6.66657 6.66667L7.7774 4.44417L9.9999 3.33333L7.7774 2.2225L6.66657 0L5.55573 2.2225L3.33323 3.33333L5.55573 4.44833ZM16.1107 3.89333L17.0832 5.83333L18.0557 3.88917L19.9999 2.91667L18.0557 1.94417L17.0832 0L16.1107 1.94417L14.1666 2.91667L16.1107 3.89333Z" fill="white"/>
</g>
<defs>
<clipPath id="clip0_291_115">
<rect width="20" height="20" fill="white"/>
</clipPath>
</defs>
</svg>
