<svg width="34" height="35" viewBox="0 0 34 35" fill="none" xmlns="http://www.w3.org/2000/svg">
<g clip-path="url(#clip0_254_1705)">
<path d="M32.1665 7.14156C31.6502 6.92649 31.0815 6.86996 30.533 6.97916C29.9845 7.08836 29.4809 7.35836 29.0863 7.75476L25.4325 11.4086L18.9529 4.92893C18.4229 4.39917 17.7043 4.10156 16.955 4.10156C16.2057 4.10156 15.4871 4.39917 14.9571 4.92893L8.4775 11.4086L4.8237 7.75476C4.4285 7.35968 3.92504 7.09065 3.37696 6.98166C2.82888 6.87267 2.26079 6.92864 1.74452 7.14247C1.22824 7.3563 0.786946 7.7184 0.476431 8.18299C0.165916 8.64759 0.000119319 9.19382 0 9.75263L0 24.7098C0.00224351 26.5827 0.747266 28.3783 2.07165 29.7027C3.39603 31.0271 5.19163 31.7721 7.06458 31.7743H26.8454C28.7184 31.7721 30.514 31.0271 31.8384 29.7027C33.1627 28.3783 33.9078 26.5827 33.91 24.7098V9.75263C33.9101 9.19377 33.7446 8.64743 33.4342 8.18266C33.1239 7.7179 32.6827 7.3556 32.1665 7.14156Z" fill="black"/>
</g>
<defs>
<clipPath id="clip0_254_1705">
<rect width="33.91" height="33.91" fill="white" transform="translate(0 0.689941)"/>
</clipPath>
</defs>
</svg>
