<svg width="24" height="24" viewBox="0 0 24 24" fill="none" xmlns="http://www.w3.org/2000/svg">
<g clip-path="url(#clip0_291_216)">
<path d="M9 12C5.691 12 3 9.309 3 6C3 2.691 5.691 0 9 0C12.309 0 15 2.691 15 6C15 9.309 12.309 12 9 12ZM13.27 19.48C12.457 20.293 12 21.395 12 22.545V24H13.455C14.605 24 15.707 23.543 16.52 22.73L23.327 15.923C24.224 15.026 24.224 13.57 23.327 12.673C22.43 11.776 20.974 11.776 20.077 12.673L13.27 19.48ZM10 22.545C10 20.853 10.659 19.262 11.855 18.066L14.231 15.69C12.755 14.63 10.952 13.999 9 13.999C4.038 14 0 18.038 0 23C0 23.552 0.448 24 1 24H10V22.545Z" fill="black"/>
</g>
<defs>
<clipPath id="clip0_291_216">
<rect width="24" height="24" fill="white"/>
</clipPath>
</defs>
</svg>
