<svg width="16" height="16" viewBox="0 0 16 16" fill="none" xmlns="http://www.w3.org/2000/svg">
<g clip-path="url(#clip0_712_594)">
<path d="M6 8C3.794 8 2 6.206 2 4C2 1.794 3.794 0 6 0C8.206 0 10 1.794 10 4C10 6.206 8.206 8 6 8ZM8.84667 12.9867C8.30467 13.5287 8 14.2633 8 15.03V16H8.97C9.73667 16 10.4713 15.6953 11.0133 15.1533L15.5513 10.6153C16.1493 10.0173 16.1493 9.04667 15.5513 8.44867C14.9533 7.85067 13.9827 7.85067 13.3847 8.44867L8.84667 12.9867ZM6.66667 15.03C6.66667 13.902 7.106 12.8413 7.90333 12.044L9.48733 10.46C8.50333 9.75333 7.30133 9.33267 6 9.33267C2.692 9.33333 0 12.0253 0 15.3333C0 15.7013 0.298667 16 0.666667 16H6.66667V15.03Z" fill="white"/>
</g>
<defs>
<clipPath id="clip0_712_594">
<rect width="16" height="16" fill="white"/>
</clipPath>
</defs>
</svg>
