<svg width="24" height="24" viewBox="0 0 24 24" fill="none" xmlns="http://www.w3.org/2000/svg">
<g clip-path="url(#clip0_1044_284)">
<path d="M0 19C0 21.757 2.243 24 5 24H19C21.757 24 24 21.757 24 19V10H0V19ZM8.397 15.677H10.644L11.24 13.394C11.334 13.032 11.659 12.78 12.032 12.773C12.405 12.78 12.73 13.032 12.824 13.394L13.42 15.677H15.667C16.119 15.677 16.398 16.031 16.398 16.353C16.398 16.732 16.134 17.051 15.832 17.219L14.268 18.089L14.962 19.982C15.096 20.349 14.975 20.76 14.663 20.995C14.344 21.235 13.904 21.232 13.588 20.988L12.032 19.785L10.476 20.988C10.16 21.232 9.72 21.235 9.401 20.995C9.089 20.76 8.968 20.349 9.102 19.982L9.796 18.089L8.232 17.219C7.93 17.051 7.666 16.732 7.666 16.353C7.666 16.032 7.945 15.677 8.397 15.677ZM24 7V8H0V7C0 4.243 2.243 2 5 2H6V1C6 0.448 6.448 0 7 0C7.552 0 8 0.448 8 1V2H16V1C16 0.448 16.448 0 17 0C17.552 0 18 0.448 18 1V2H19C21.757 2 24 4.243 24 7Z" fill="black"/>
</g>
<defs>
<clipPath id="clip0_1044_284">
<rect width="24" height="24" fill="white"/>
</clipPath>
</defs>
</svg>
