<svg width="16" height="17" viewBox="0 0 16 17" fill="none" xmlns="http://www.w3.org/2000/svg">
<g clip-path="url(#clip0_731_175)">
<path d="M5.99963 8.7063C8.20857 8.7063 9.99927 6.9156 9.99927 4.70666C9.99927 2.49773 8.20857 0.707031 5.99963 0.707031C3.7907 0.707031 2 2.49773 2 4.70666C2 6.9156 3.7907 8.7063 5.99963 8.7063Z" fill="white"/>
<path d="M5.99945 10.0396C2.68772 10.0436 0.00403088 12.7273 0 16.039C0 16.4072 0.298441 16.7056 0.666595 16.7056H11.3323C11.7004 16.7056 11.9989 16.4072 11.9989 16.039C11.9949 12.7273 9.31118 10.0436 5.99945 10.0396Z" fill="white"/>
<path d="M14.6652 5.95654C13.8929 5.99501 13.2969 6.65057 13.332 7.42306C13.3671 6.65057 12.7711 5.99501 11.9988 5.95654C11.2264 5.99501 10.6304 6.65057 10.6655 7.42306C10.6655 8.5763 12.1694 9.92749 12.9187 10.5288C13.1602 10.7222 13.5037 10.7222 13.7453 10.5288C14.4945 9.92883 15.9984 8.5763 15.9984 7.42306C16.0335 6.65054 15.4376 5.99501 14.6652 5.95654Z" fill="white"/>
</g>
<defs>
<clipPath id="clip0_731_175">
<rect width="16" height="16" fill="white" transform="translate(0 0.706055)"/>
</clipPath>
</defs>
</svg>
