<svg width="16" height="16" viewBox="0 0 16 16" fill="none" xmlns="http://www.w3.org/2000/svg">
<g clip-path="url(#clip0_731_185)">
<path d="M8.24886 0.103027C6.77422 0.103027 5.3327 0.540307 4.10659 1.35957C2.88047 2.17883 1.92484 3.34328 1.36052 4.70567C0.796199 6.06805 0.648548 7.56718 0.936235 9.01348C1.22392 10.4598 1.93403 11.7883 2.97675 12.831C4.01947 13.8737 5.34799 14.5838 6.79428 14.8715C8.24058 15.1592 9.73971 15.0116 11.1021 14.4472C12.4645 13.8829 13.6289 12.9273 14.4482 11.7012C15.2675 10.4751 15.7047 9.03354 15.7047 7.55891C15.7026 5.58214 14.9164 3.68695 13.5186 2.28917C12.1208 0.89138 10.2256 0.105165 8.24886 0.103027ZM10.2508 4.45229H6.24695C6.77431 3.41112 7.44849 2.45111 8.24886 1.60166C9.04951 2.45087 9.72373 3.41093 10.2508 4.45229ZM10.7478 5.69494C10.9388 6.29804 11.0385 6.92632 11.0436 7.55891C11.0385 8.1915 10.9388 8.81978 10.7478 9.42288H5.74865C5.55769 8.81978 5.458 8.1915 5.4529 7.55891C5.458 6.92632 5.55769 6.29804 5.74865 5.69494H10.7478ZM6.63341 1.56687C5.91744 2.4428 5.32651 3.41387 4.87755 4.45229H2.87627C3.70005 3.03346 5.05007 1.99667 6.63341 1.56687ZM2.03562 7.55891C2.03556 6.92662 2.13215 6.29804 2.32205 5.69494H4.45878C4.29771 6.30331 4.2142 6.9296 4.21025 7.55891C4.2142 8.18823 4.29771 8.81452 4.45878 9.42288H2.32205C2.13215 8.81978 2.03556 8.1912 2.03562 7.55891ZM2.87627 10.6655H4.87755C5.32651 11.7039 5.91744 12.675 6.63341 13.551C5.05007 13.1212 3.70005 12.0844 2.87627 10.6655ZM6.24695 10.6655H10.2508C9.7234 11.7067 9.04922 12.6667 8.24886 13.5162C7.4482 12.667 6.77398 11.7069 6.24695 10.6655ZM9.8674 13.551C10.5823 12.6748 11.1722 11.7038 11.6202 10.6655H13.6214C12.7984 12.0837 11.4496 13.1204 9.8674 13.551ZM14.4621 7.55891C14.4621 8.1912 14.3656 8.81978 14.1757 9.42288H12.0389C12.2 8.81452 12.2835 8.18823 12.2875 7.55891C12.2835 6.9296 12.2 6.30331 12.0389 5.69494H14.1744C14.3647 6.29797 14.4617 6.92656 14.4621 7.55891ZM11.6202 4.45229C11.1722 3.41405 10.5823 2.44299 9.8674 1.56687C11.4496 1.9974 12.7984 3.0341 13.6214 4.45229H11.6202Z" fill="white"/>
</g>
<defs>
<clipPath id="clip0_731_185">
<rect width="14.9118" height="14.9118" fill="white" transform="translate(0.792969 0.103027)"/>
</clipPath>
</defs>
</svg>
