<svg width="24" height="24" viewBox="0 0 24 24" fill="none" xmlns="http://www.w3.org/2000/svg">
<path d="M24 22.5C24 23.328 23.328 24 22.5 24C21.672 24 21 23.328 21 22.5C21 21.672 21.672 21 22.5 21C23.328 21 24 21.672 24 22.5ZM16.5 15C15.672 15 15 15.672 15 16.5C15 17.328 15.672 18 16.5 18C17.328 18 18 17.328 18 16.5C18 15.672 17.328 15 16.5 15ZM18.091 23.541L22.591 16.541C22.89 16.076 22.755 15.457 22.291 15.159C21.825 14.858 21.207 14.994 20.909 15.459L16.409 22.459C16.11 22.924 16.245 23.543 16.709 23.841C16.877 23.949 17.063 24 17.249 24C17.578 24 17.9 23.838 18.091 23.541ZM19 2H5C2.239 2 0 4.239 0 7V13C0 15.761 2.239 18 5 18H12.373C12.816 18 13.156 17.599 13.067 17.166C13.023 16.951 12.999 16.729 12.999 16.5C12.999 14.738 14.305 13.245 15.999 13H23.999V7C23.999 4.239 21.761 2 19 2ZM4.5 15C3.672 15 3 14.328 3 13.5C3 12.672 3.672 12 4.5 12C5.328 12 6 12.672 6 13.5C6 14.328 5.328 15 4.5 15ZM4.5 8C3.672 8 3 7.328 3 6.5C3 5.672 3.672 5 4.5 5C5.328 5 6 5.672 6 6.5C6 7.328 5.328 8 4.5 8ZM12 14C9.794 14 8 12.206 8 10C8 7.794 9.794 6 12 6C14.206 6 16 7.794 16 10C16 12.206 14.206 14 12 14ZM19.5 8C18.672 8 18 7.328 18 6.5C18 5.672 18.672 5 19.5 5C20.328 5 21 5.672 21 6.5C21 7.328 20.328 8 19.5 8ZM14 10C14 11.103 13.103 12 12 12C10.897 12 10 11.103 10 10C10 8.897 10.897 8 12 8C13.103 8 14 8.897 14 10Z" fill="black"/>
</svg>
