<svg width="40" height="40" viewBox="0 0 40 40" fill="none" xmlns="http://www.w3.org/2000/svg">
<g clip-path="url(#clip0_1102_478)">
<path d="M38.3334 18.3334H21.6666V1.66664C21.6666 0.746172 20.9205 0 20 0C19.0795 0 18.3334 0.746172 18.3334 1.66664V18.3333H1.66664C0.746172 18.3334 0 19.0795 0 20C0 20.9205 0.746172 21.6666 1.66664 21.6666H18.3333V38.3333C18.3333 39.2537 19.0795 39.9999 19.9999 39.9999C20.9204 39.9999 21.6666 39.2537 21.6666 38.3333V21.6666H38.3332C39.2537 21.6666 39.9998 20.9205 39.9998 20C40 19.0795 39.2538 18.3334 38.3334 18.3334Z" fill="black"/>
</g>
<defs>
<clipPath id="clip0_1102_478">
<rect width="40" height="40" fill="white"/>
</clipPath>
</defs>
</svg>
