<svg width="192" height="192" viewBox="0 0 192 192" fill="none" xmlns="http://www.w3.org/2000/svg">
<rect width="192" height="192" rx="96" fill="black"/>
<path d="M63.7961 130.658L42.0739 86.8312H149.927L128.205 130.658H63.7961ZM23 74.9844L56.2198 142.01L56.4641 142.503H135.537L169 74.9844H23Z" fill="#7B33E5"/>
<path d="M115.051 80.9156C115.051 91.4313 106.51 99.9859 96.0126 99.9859C85.514 99.9859 76.974 91.4313 76.974 80.9156C76.974 70.3998 85.514 61.8453 96.0126 61.8453C106.51 61.8453 115.051 70.3998 115.051 80.9156ZM96.0126 50C78.9925 50 65.1484 63.8687 65.1484 80.9156C65.1484 97.9625 78.9925 111.831 96.0126 111.831C113.031 111.831 126.877 97.9625 126.877 80.9156C126.877 63.8687 113.031 50 96.0126 50Z" fill="#FF5A21"/>
</svg>
