<svg width="149" height="30" viewBox="0 0 149 30" fill="none" xmlns="http://www.w3.org/2000/svg">
<path d="M64.6591 12.5054H54.7305V28.4669H59.5007V16.3282H64.2236C65.0734 16.3282 65.649 16.5165 65.983 16.903C66.3096 17.2809 66.4678 17.9179 66.4678 18.8493V28.4669H71.2375V18.9857C71.2375 14.6251 69.0856 12.5054 64.6591 12.5054Z" fill="white"/>
<path d="M79.3436 7.86768H74.5752V10.6811H79.3436V7.86768Z" fill="white"/>
<path d="M79.3436 12.5044H74.5752V28.4659H79.3436V12.5044Z" fill="white"/>
<path d="M87.7906 8.41357H83.0217V28.4667H87.7906V8.41357Z" fill="white"/>
<path d="M92.6658 14.1979C91.6523 15.3269 91.1379 16.736 91.1379 18.3858V28.467H95.9072V18.4404C95.9072 17.5571 96.0876 16.9516 96.4585 16.5903C96.8281 16.2307 97.4798 16.0556 98.4517 16.0556H101.871V12.5054H97.2807C95.2263 12.5054 93.6735 13.0747 92.6658 14.1979Z" fill="white"/>
<path d="M115.076 21.8759C115.076 23.0272 114.86 23.8818 114.433 24.4167C113.995 24.965 113.245 25.2428 112.205 25.2428H110.408C109.368 25.2428 108.615 24.9655 108.168 24.4183C107.725 23.8764 107.51 23.0446 107.51 21.8759V19.0662C107.51 17.9325 107.731 17.0858 108.168 16.5511C108.615 16.004 109.368 15.7267 110.408 15.7267H112.205C113.245 15.7267 113.995 16.0048 114.433 16.5533H114.433C114.86 17.088 115.076 17.9338 115.076 19.0662V21.8759ZM112.259 12.2314H110.353C107.895 12.2314 105.968 12.8873 104.625 14.18C103.283 15.471 102.604 17.2618 102.604 19.503V21.4669C102.604 23.708 103.283 25.4993 104.625 26.7903C105.968 28.0827 107.895 28.7379 110.353 28.7379H112.259C114.717 28.7379 116.639 28.083 117.974 26.7908C119.306 25.4997 119.982 23.7085 119.982 21.4669V19.503C119.982 17.2614 119.306 15.4701 117.974 14.1791C116.639 12.8868 114.717 12.2314 112.259 12.2314Z" fill="white"/>
<path d="M144.806 12.5039L142.765 24.3107C142.681 24.989 142.344 25.1335 142.076 25.1335C141.837 25.1335 141.422 25.0252 141.331 24.3013L140.134 16.4784C139.941 15.2184 139.438 14.1686 138.637 13.3573C137.846 12.5558 136.657 12.1494 135.104 12.1494C133.716 12.1494 132.605 12.5648 131.804 13.3838C130.995 14.2121 130.506 15.2334 130.349 16.4196L129.259 24.3038C129.17 25.0252 128.771 25.1335 128.542 25.1335C128.277 25.1335 127.937 24.9856 127.825 24.2812L125.677 12.5039H121.162L123.539 24.7286C124.067 27.4262 125.704 28.7381 128.542 28.7381C129.899 28.7381 131.022 28.3427 131.878 27.5634C132.736 26.782 133.259 25.7039 133.434 24.3593L134.414 16.8576C134.508 16.2296 134.853 16.1359 135.05 16.1359C135.258 16.1359 135.618 16.2253 135.713 16.8253L136.884 24.3269C137.093 25.7078 137.661 26.7994 138.572 27.5724C139.482 28.3457 140.726 28.7381 142.266 28.7381C143.502 28.7381 144.558 28.3862 145.406 27.6924C146.253 27.0005 146.788 26.0231 146.996 24.7883L149 12.5039H144.806Z" fill="white"/>
<path d="M13.2305 26.1584L6.1858 11.945H41.1635L34.1189 26.1584H13.2305ZM0 8.10303L10.7734 29.8401L10.8527 29.9999H36.4967L47.3489 8.10303H0Z" fill="#7B33E5"/>
<path d="M29.8526 10.0262C29.8526 13.4365 27.0827 16.2108 23.6784 16.2108C20.2736 16.2108 17.5041 13.4365 17.5041 10.0262C17.5041 6.61583 20.2736 3.84151 23.6784 3.84151C27.0827 3.84151 29.8526 6.61583 29.8526 10.0262ZM23.6784 0C18.1587 0 13.6689 4.49771 13.6689 10.0262C13.6689 15.5546 18.1587 20.0523 23.6784 20.0523C29.1977 20.0523 33.6879 15.5546 33.6879 10.0262C33.6879 4.49771 29.1977 0 23.6784 0Z" fill="#FF5A21"/>
</svg>
