<svg width="24" height="24" viewBox="0 0 24 24" fill="none" xmlns="http://www.w3.org/2000/svg">
<path d="M12.0005 15.999C14.2088 15.999 15.999 14.2088 15.999 12.0005C15.999 9.79214 14.2088 8.00195 12.0005 8.00195C9.79214 8.00195 8.00195 9.79214 8.00195 12.0005C8.00195 14.2088 9.79214 15.999 12.0005 15.999Z" fill="white"/>
<path d="M23.2668 9.4202C21.7164 6.89513 18.1897 2.65869 12 2.65869C5.81027 2.65869 2.28358 6.89513 0.733158 9.4202C-0.244386 11.0013 -0.244386 12.9991 0.733158 14.5803C2.28358 17.1054 5.81027 21.3418 12 21.3418C18.1897 21.3418 21.7164 17.1054 23.2668 14.5803C24.2443 12.9991 24.2443 11.0013 23.2668 9.4202ZM12 17.998C8.68752 17.998 6.0022 15.3127 6.0022 12.0002C6.0022 8.68777 8.68752 6.00245 12 6.00245C15.3124 6.00245 17.9978 8.68777 17.9978 12.0002C17.9944 15.3113 15.3111 17.9947 12 17.998Z" fill="white"/>
</svg>
