<svg width="26" height="26" viewBox="0 0 26 26" fill="none" xmlns="http://www.w3.org/2000/svg">
<g clip-path="url(#clip0_321_519)">
<path d="M20.4371 16.2988C19.5639 16.0789 18.6832 16.6086 18.4654 17.4796C18.2477 18.3495 18.7753 19.2324 19.6463 19.4513C21.4858 19.9128 22.3513 20.4653 22.6547 20.7545C21.9288 21.45 18.6745 22.75 13 22.75C7.3255 22.75 4.07117 21.45 3.34533 20.7545C3.64867 20.4642 4.51425 19.9128 6.35375 19.4513C7.22475 19.2324 7.75233 18.3495 7.53458 17.4796C7.31575 16.6086 6.42958 16.0799 5.56292 16.2988C1.97492 17.2001 0 18.7829 0 20.7556C0 24.3783 6.52925 26 13 26C19.4708 26 26 24.3783 26 20.7556C26 18.7829 24.0251 17.199 20.4371 16.2988Z" fill="white"/>
<path d="M13.0003 0C11.5042 0 10.292 1.21225 10.292 2.70833C10.292 4.20442 11.5042 5.41667 13.0003 5.41667C14.4964 5.41667 15.7087 4.20442 15.7087 2.70833C15.7087 1.21225 14.4964 0 13.0003 0Z" fill="white"/>
<path d="M8.66699 10.8333V12.4583C8.66699 13.9674 9.55424 15.2739 10.8337 15.8838V18.9583C10.8337 19.8564 11.5617 20.5833 12.4587 20.5833H13.542C14.439 20.5833 15.167 19.8564 15.167 18.9583V15.8838C16.4464 15.2739 17.3337 13.9674 17.3337 12.4583V10.8333C17.3337 8.4435 15.3902 6.5 13.0003 6.5C10.6105 6.5 8.66699 8.4435 8.66699 10.8333Z" fill="white"/>
</g>
<defs>
<clipPath id="clip0_321_519">
<rect width="26" height="26" fill="white"/>
</clipPath>
</defs>
</svg>
