<svg width="20" height="20" viewBox="0 0 20 20" fill="none" xmlns="http://www.w3.org/2000/svg">
<g clip-path="url(#clip0_213_137)">
<path d="M7.08333 9.16667H5.41667C4.26833 9.16667 3.33333 8.23167 3.33333 7.08333V5.41667C3.33333 4.26833 4.26833 3.33333 5.41667 3.33333H7.08333C8.23167 3.33333 9.16667 4.26833 9.16667 5.41667V7.08333C9.16667 8.23167 8.23167 9.16667 7.08333 9.16667ZM14.5833 9.16667H12.9167C11.7683 9.16667 10.8333 8.23167 10.8333 7.08333V5.41667C10.8333 4.26833 11.7683 3.33333 12.9167 3.33333H14.5833C15.7317 3.33333 16.6667 4.26833 16.6667 5.41667V7.08333C16.6667 8.23167 15.7317 9.16667 14.5833 9.16667ZM7.08333 16.6667H5.41667C4.26833 16.6667 3.33333 15.7317 3.33333 14.5833V12.9167C3.33333 11.7683 4.26833 10.8333 5.41667 10.8333H7.08333C8.23167 10.8333 9.16667 11.7683 9.16667 12.9167V14.5833C9.16667 15.7317 8.23167 16.6667 7.08333 16.6667ZM6.66667 19.1667C6.66667 18.7067 6.29333 18.3333 5.83333 18.3333H4.16667C2.78833 18.3333 1.66667 17.2117 1.66667 15.8333V14.1667C1.66667 13.7067 1.29333 13.3333 0.833333 13.3333C0.373333 13.3333 0 13.7067 0 14.1667V15.8333C0 18.1308 1.86917 20 4.16667 20H5.83333C6.29333 20 6.66667 19.6267 6.66667 19.1667ZM20 15.8333V14.1667C20 13.7067 19.6267 13.3333 19.1667 13.3333C18.7067 13.3333 18.3333 13.7067 18.3333 14.1667V15.8333C18.3333 17.2117 17.2117 18.3333 15.8333 18.3333H14.1667C13.7067 18.3333 13.3333 18.7067 13.3333 19.1667C13.3333 19.6267 13.7067 20 14.1667 20H15.8333C18.1308 20 20 18.1308 20 15.8333ZM20 5.83333V4.16667C20 1.86917 18.1308 0 15.8333 0H14.1667C13.7067 0 13.3333 0.373333 13.3333 0.833333C13.3333 1.29333 13.7067 1.66667 14.1667 1.66667H15.8333C17.2117 1.66667 18.3333 2.78833 18.3333 4.16667V5.83333C18.3333 6.29333 18.7067 6.66667 19.1667 6.66667C19.6267 6.66667 20 6.29333 20 5.83333ZM1.66667 5.83333V4.16667C1.66667 2.78833 2.78833 1.66667 4.16667 1.66667H5.83333C6.29333 1.66667 6.66667 1.29333 6.66667 0.833333C6.66667 0.373333 6.29333 0 5.83333 0H4.16667C1.86917 0 0 1.86917 0 4.16667V5.83333C0 6.29333 0.373333 6.66667 0.833333 6.66667C1.29333 6.66667 1.66667 6.29333 1.66667 5.83333ZM12.0833 14.1667C11.3933 14.1667 10.8333 14.7267 10.8333 15.4167C10.8333 16.1067 11.3933 16.6667 12.0833 16.6667C12.7733 16.6667 13.3333 16.1067 13.3333 15.4167C13.3333 14.7267 12.7733 14.1667 12.0833 14.1667ZM15.4167 10.8333C14.7267 10.8333 14.1667 11.3933 14.1667 12.0833C14.1667 12.7733 14.7267 13.3333 15.4167 13.3333C16.1067 13.3333 16.6667 12.7733 16.6667 12.0833C16.6667 11.3933 16.1067 10.8333 15.4167 10.8333ZM12.0833 10.8333C11.3933 10.8333 10.8333 11.3933 10.8333 12.0833C10.8333 12.7733 11.3933 13.3333 12.0833 13.3333C12.7733 13.3333 13.3333 12.7733 13.3333 12.0833C13.3333 11.3933 12.7733 10.8333 12.0833 10.8333Z" fill="white"/>
</g>
<defs>
<clipPath id="clip0_213_137">
<rect width="20" height="20" fill="white"/>
</clipPath>
</defs>
</svg>
