<svg width="20" height="20" viewBox="0 0 20 20" fill="none" xmlns="http://www.w3.org/2000/svg">
<g clip-path="url(#clip0_363_96)">
<path d="M19.4636 7.89967L16.5461 2.89967C15.8019 1.62467 14.4236 0.833008 12.9477 0.833008H7.05439C5.57855 0.833008 4.19939 1.62551 3.45522 2.89967L0.538555 7.89967C-0.217279 9.19467 -0.217279 10.8038 0.538555 12.0988L3.45522 17.0988C4.19939 18.3738 5.57772 19.1655 7.05439 19.1655H12.9477C14.4236 19.1655 15.8027 18.373 16.5469 17.0988L19.4636 12.0988C20.2186 10.8038 20.2186 9.19467 19.4636 7.89967ZM15.1669 8.75884L11.4786 12.3797C10.8261 13.0197 9.98605 13.3388 9.14606 13.3388C8.31439 13.3388 7.48189 13.0255 6.83189 12.398L5.24939 10.8413C4.92105 10.5188 4.91689 9.99134 5.23939 9.66301C5.56189 9.33384 6.08855 9.32967 6.41772 9.65301L7.99522 11.2038C8.64355 11.8288 9.66355 11.8255 10.3127 11.1888L14.0002 7.56884C14.3277 7.24551 14.8536 7.25134 15.1786 7.57967C15.5011 7.90801 15.4961 8.43634 15.1669 8.75884Z" fill="#4FBF0A"/>
</g>
<defs>
<clipPath id="clip0_363_96">
<rect width="20" height="20" fill="white"/>
</clipPath>
</defs>
</svg>
