<svg width="20" height="20" viewBox="0 0 20 20" fill="none" xmlns="http://www.w3.org/2000/svg">
<g clip-path="url(#clip0_321_237)">
<path d="M10.6965 0.0234137C9.26783 -0.0765521 7.83432 0.131535 6.49301 0.633595C5.1517 1.13565 3.93388 1.91997 2.92195 2.93348C1.91003 3.94698 1.12761 5.16602 0.627648 6.50812C0.127682 7.85021 -0.0781683 9.28404 0.0240268 10.7126C0.391527 16.0067 5.06819 20.0001 10.9024 20.0001H15.8332C16.9379 19.9988 17.9969 19.5593 18.778 18.7782C19.5591 17.9971 19.9985 16.9381 19.9999 15.8334V10.2834C20.0309 7.71462 19.0891 5.22916 17.3635 3.32606C15.6378 1.42295 13.2561 0.243112 10.6965 0.0234137ZM9.99986 4.16675C10.3314 4.16675 10.6493 4.29844 10.8837 4.53286C11.1182 4.76728 11.2499 5.08523 11.2499 5.41675C11.2499 5.74827 11.1182 6.06621 10.8837 6.30063C10.6493 6.53505 10.3314 6.66675 9.99986 6.66675C9.66834 6.66675 9.3504 6.53505 9.11598 6.30063C8.88156 6.06621 8.74986 5.74827 8.74986 5.41675C8.74986 5.08523 8.88156 4.76728 9.11598 4.53286C9.3504 4.29844 9.66834 4.16675 9.99986 4.16675ZM11.6665 15.0001C11.6665 15.2211 11.5787 15.4331 11.4224 15.5893C11.2662 15.7456 11.0542 15.8334 10.8332 15.8334C10.6122 15.8334 10.4002 15.7456 10.2439 15.5893C10.0877 15.4331 9.99986 15.2211 9.99986 15.0001V10.0001H9.16653C8.94551 10.0001 8.73355 9.91228 8.57727 9.756C8.42099 9.59972 8.33319 9.38776 8.33319 9.16675C8.33319 8.94573 8.42099 8.73377 8.57727 8.57749C8.73355 8.42121 8.94551 8.33341 9.16653 8.33341H9.99986C10.4419 8.33341 10.8658 8.50901 11.1784 8.82157C11.4909 9.13413 11.6665 9.55805 11.6665 10.0001V15.0001Z" fill="white"/>
</g>
<defs>
<clipPath id="clip0_321_237">
<rect width="20" height="20" fill="white"/>
</clipPath>
</defs>
</svg>
