<svg width="144" height="29" viewBox="0 0 144 29" fill="none" xmlns="http://www.w3.org/2000/svg">
<path d="M62.9427 12.0405H53.4138V27.3289H57.9919V15.7021H62.5247C63.3403 15.7021 63.8926 15.8825 64.2132 16.2527C64.5267 16.6146 64.6785 17.2248 64.6785 18.1169V27.3289H69.2562V18.2476C69.2562 14.0708 67.1909 12.0405 62.9427 12.0405Z" fill="white"/>
<path d="M77.0366 7.59863H72.4602V10.2934H77.0366V7.59863Z" fill="white"/>
<path d="M77.0366 12.0396H72.4602V27.328H77.0366V12.0396Z" fill="white"/>
<path d="M85.143 8.12158H80.5662V27.3291H85.143V8.12158Z" fill="white"/>
<path d="M89.8218 13.6616C88.8491 14.7431 88.3555 16.0928 88.3555 17.6729V27.329H92.9327V17.7252C92.9327 16.8792 93.1058 16.2993 93.4618 15.9532C93.8165 15.6088 94.442 15.441 95.3747 15.441H98.6562V12.0405H94.2509C92.2792 12.0405 90.7889 12.5859 89.8218 13.6616Z" fill="white"/>
<path d="M111.329 21.0161C111.329 22.1188 111.121 22.9374 110.712 23.4497C110.291 23.9749 109.572 24.241 108.574 24.241H106.849C105.851 24.241 105.128 23.9753 104.699 23.4513C104.274 22.9322 104.067 22.1355 104.067 21.0161V18.3249C104.067 17.2389 104.28 16.428 104.699 15.9158C105.128 15.3918 105.851 15.1262 106.849 15.1262H108.574C109.572 15.1262 110.291 15.3926 110.712 15.9179H110.712C111.121 16.4301 111.329 17.2402 111.329 18.3249V21.0161ZM108.626 11.7783H106.797C104.438 11.7783 102.588 12.4065 101.299 13.6447C100.011 14.8813 99.3591 16.5965 99.3591 18.7432V20.6243C99.3591 22.7709 100.011 24.4867 101.299 25.7233C102.588 26.9611 104.438 27.5887 106.797 27.5887H108.626C110.984 27.5887 112.83 26.9614 114.11 25.7237C115.389 24.487 116.037 22.7714 116.037 20.6243V18.7432C116.037 16.5962 115.389 14.8804 114.11 13.6439C112.83 12.406 110.984 11.7783 108.626 11.7783Z" fill="white"/>
<path d="M139.863 12.0393L137.904 23.3482C137.823 23.9979 137.499 24.1362 137.243 24.1362C137.013 24.1362 136.614 24.0326 136.527 23.3391L135.378 15.8461C135.193 14.6393 134.71 13.6338 133.942 12.8567C133.183 12.089 132.042 11.6997 130.551 11.6997C129.219 11.6997 128.153 12.0976 127.384 12.882C126.608 13.6754 126.138 14.6536 125.987 15.7898L124.942 23.3416C124.856 24.0326 124.473 24.1362 124.253 24.1362C123.999 24.1362 123.673 23.9946 123.565 23.3199L121.504 12.0393H117.17L119.452 23.7484C119.959 26.3323 121.529 27.5889 124.253 27.5889C125.556 27.5889 126.634 27.2101 127.455 26.4637C128.278 25.7152 128.781 24.6826 128.948 23.3947L129.889 16.2094C129.979 15.6078 130.31 15.5181 130.499 15.5181C130.698 15.5181 131.045 15.6037 131.135 16.1784L132.259 23.3637C132.46 24.6863 133.005 25.7319 133.879 26.4723C134.753 27.213 135.946 27.5889 137.425 27.5889C138.611 27.5889 139.625 27.2518 140.439 26.5873C141.251 25.9245 141.765 24.9884 141.964 23.8056L143.888 12.0393H139.863Z" fill="white"/>
<path d="M13.5849 25.1177L6.82391 11.5037H40.3931L33.6322 25.1177H13.5849ZM0.887207 7.82373L11.2268 28.6441L11.3029 28.7972H35.9143L46.3294 7.82373H0.887207Z" fill="#7B33E5"/>
<path d="M29.5379 9.66585C29.5379 12.9324 26.8795 15.5897 23.6123 15.5897C20.3446 15.5897 17.6866 12.9324 17.6866 9.66585C17.6866 6.39933 20.3446 3.74201 23.6123 3.74201C26.8795 3.74201 29.5379 6.39933 29.5379 9.66585ZM23.6123 0.0625C18.3148 0.0625 14.0059 4.37054 14.0059 9.66585C14.0059 14.9612 18.3148 19.2692 23.6123 19.2692C28.9092 19.2692 33.2187 14.9612 33.2187 9.66585C33.2187 4.37054 28.9092 0.0625 23.6123 0.0625Z" fill="#FF5A21"/>
</svg>
